<svg xmlns="http://www.w3.org/2000/svg" viewBox="0 0 39.67 39.67"><defs><style>.cls-1{fill:#00005b;}.cls-2{fill:#99f;}</style></defs><g id="Layer_2" data-name="Layer 2"><g id="Layer_1-2" data-name="Layer 1"><rect class="cls-1" width="39.67" height="39.67" rx="5.81"/><path class="cls-2" d="M16.29,24.22h-6L9,28.21a.29.29,0,0,1-.11.18.36.36,0,0,1-.2.06H5.62c-.17,0-.23-.1-.18-.29l5.24-14.89c.05-.16.11-.33.16-.54a5.36,5.36,0,0,0,.1-1.06.17.17,0,0,1,0-.07.09.09,0,0,1,0-.06s0,0,.06,0h4.24c.13,0,.2,0,.21.13l5.95,16.56c.06.18,0,.27-.15.27H17.89a.26.26,0,0,1-.17-.05.23.23,0,0,1-.09-.14Zm-5.11-2.79h4.14c-.1-.35-.23-1.07-.37-1.5s-.28-.91-.44-1.41-.32-1-.47-1.49-.3-1-.44-1.44-.24-.89-.35-1.27h0a19.5,19.5,0,0,1-.55,2.09l-.74,2.41C11.67,19.65,11.42,20.73,11.18,21.43Z"/><path class="cls-2" d="M31.07,22.79H25.9a4.2,4.2,0,0,0,.53,1.5,2.67,2.67,0,0,0,1.2,1,5,5,0,0,0,2.12.45,6.62,6.62,0,0,0,1.47-.11,7.49,7.49,0,0,0,1.53-.46c.09-.07.13,0,.13.13v2.49a.32.32,0,0,1-.16.32,7.7,7.7,0,0,1-1.7.56,10,10,0,0,1-2.12.08,7.42,7.42,0,0,1-3.12-.57,5.66,5.66,0,0,1-2.05-1.55,6.18,6.18,0,0,1-1.12-2.14,8.28,8.28,0,0,1-.34-2.37,8,8,0,0,1,.4-2.58,6.84,6.84,0,0,1,1.22-2.23,5.79,5.79,0,0,1,2-1.54,6.07,6.07,0,0,1,2.72-.57,6.6,6.6,0,0,1,2.67.53A4.62,4.62,0,0,1,33,17.06a6.29,6.29,0,0,1,1,1.85,6.67,6.67,0,0,1,.31,2c0,.38,0,.73,0,1.05a5.3,5.3,0,0,1-.1.55.22.22,0,0,1-.08.15.23.23,0,0,1-.16.06,4.83,4.83,0,0,0-.53,0c-.26,0-.71,0-1.08,0Zm-5.18-2.08h3.43l.93,0a1.58,1.58,0,0,0,.38,0V20.5a4.21,4.21,0,0,0-.05-.94,2.14,2.14,0,0,0-2.13-1.5,2.31,2.31,0,0,0-1.26.3,2.21,2.21,0,0,0-.9.94A5.29,5.29,0,0,0,25.89,20.71Z"/></g></g></svg>