<svg xmlns="http://www.w3.org/2000/svg" viewBox="0 0 1251.87 160.66"><defs><style>.cls-1{fill:#f05f48;}.cls-2{fill:#f7eb20;}.cls-3{fill:#ca177e;}.cls-4{fill:#4350a1;}.cls-5{fill:#4cb3e6;}.cls-6{fill:#c5374b;}</style></defs><g id="Layer_2" data-name="Layer 2"><g id="Layer_1-2" data-name="Layer 1"><path class="cls-1" d="M185.12,144.7s10-2.92,8.57-10.18-9.34-12.07-2.84-14.06,34.24,2,28.86,10.76S206,139.8,200.81,144.7s-10.5,11.32-15.75,8.11S185.12,144.7,185.12,144.7Z"/><path class="cls-1" d="M1221.71,148.68s8.9-5.4,5.65-12.05-12.14-9.25-6.37-12.84,33.59-6.93,30.66,2.93-11.08,11.85-14.78,17.91-7.22,13.65-13.12,11.9S1221.71,148.68,1221.71,148.68Z"/><path class="cls-2" d="M426.92,137s-16.07,11.54-4.2,13.72,14.34,11.68,19.94,9.67,9.83-9.57,2.94-14.42-10.93-8.71-10.3-11.7S426.92,137,426.92,137Z"/><path class="cls-2" d="M17.33,130S.82,119,3,130.9-2.79,148.46,1.07,153s12.45,5.79,14.53-2.38,4.24-13.31,7.27-13.79S17.33,130,17.33,130Z"/><path class="cls-2" d="M1214.2,2.08s-18.72-6.44-13.63,4.5-1.24,18.46,3.63,21.87,13.5,2.49,13.48-5.94.78-13.95,3.59-15.17S1214.2,2.08,1214.2,2.08Z"/><path class="cls-3" d="M1079.25,48.47c-11.75,7.14-15.43,20.88-8.52,24.26s21.41,2.54,23.13,7.83-6.67,17.89-1.34,19.24,24.93-1.61,24.57-11.22-12.23-15.28-12-24.42,6.66-16.6,3.5-22.69-12.39-8-16.63-4.24Z"/><path class="cls-3" d="M88.06,4.62C75.78-1.55,62.18,2.63,63,10.28S72.2,29.77,68.63,34s-18.7,3.85-17,9.09S66.22,63.38,74.17,58,80.63,39.5,88.49,34.84s17.61-3.17,21.08-9.08.19-14.74-5.23-16.34Z"/><path class="cls-4" d="M312.54,33.9c6.87-1.1,17.85,8,15.7,15.13s-14.17,6.09-15.83,12,1.55,15.25-5.35,12-19-22-25.29-19.7-21.83-5.12-24.58-12,3.28-26.43,9.77-27.29S287.34,26.59,287,29.5s6.68,7.14,10.89,6.09S312.54,33.9,312.54,33.9Z"/><path class="cls-5" d="M963.74,108.05c-.74.32-1.51.57-2.28.82-7.88,2.57-29.73,23.89-20.09,31.78,10.06,8.23,34.29,18.75,38,9.6s1.67-16.8-1.68-24,3.51-19.48-1.07-20.86C973.05,104.39,966.55,106.86,963.74,108.05Z"/><path class="cls-6" d="M893.15,0S865.83,2.53,862.8,13.23s5,21.57,8.94,25S889.37,30.84,892,21,908.77,9,909,4.38,893.15,0,893.15,0Z"/></g></g></svg>