<svg xmlns="http://www.w3.org/2000/svg" viewBox="0 0 193.87 379.77"><defs><style>.cls-1{fill:#e3e6eb;}.cls-2{fill:#1f1012;}.cls-3{fill:#8e1926;}.cls-4{fill:#212023;}.cls-5{fill:#5b0e15;}.cls-6{fill:#0e0d13;}.cls-7{fill:#7d1417;}.cls-8{fill:#d0d5e0;}.cls-10,.cls-9{fill:none;stroke-miterlimit:10;}.cls-9{stroke:#e3e6eb;stroke-width:2.51px;}.cls-10{stroke:#3d3e42;stroke-width:0.42px;}.cls-11{fill:#3d3e42;}.cls-12{fill:#fff;opacity:0.12;}</style></defs><g id="Layer_2" data-name="Layer 2"><g id="Layer_1-2" data-name="Layer 1"><g id="Kanye_bear_down" data-name="Kanye bear down"><path class="cls-1" d="M184.28,216.93s2.35-1.07,3-.78a5,5,0,0,1,1.06.69s0,1-.48,1.33-2.38,1.28-2.38,1.28Z"/><path class="cls-1" d="M186.11,219.82a18.16,18.16,0,0,1,3.56.6c.6.34.81.49.82.66a3.34,3.34,0,0,1-1.23,1.86c-.78.5-1,.82-1.4.88s-1.83-1.09-1.83-1.09Z"/><path class="cls-1" d="M186,224.13s4.34,1.08,4.73,1.51.78.94.74,1.21.27.07-1.21.46a10,10,0,0,1-2.76.41,15.54,15.54,0,0,1-2.53-.83Z"/><path class="cls-1" d="M183.59,228.34l3.23,5.41s.7,1.1-.32,1.09-8.65-3-8.95-3.22S183.59,228.34,183.59,228.34Z"/><path class="cls-1" d="M9.44,247.52s-3.32-1-4.88-.1c-.78.47-.83,3.17-.58,4a10.57,10.57,0,0,0,1.26,2.66l1.47,1.77Z"/><path class="cls-1" d="M5.77,255.24s-3.47,1.19-4.2,2-1.94,1.67-1.46,2c.82.6,2.89,1.63,4.24,1.36s3.28-.55,3.28-.55Z"/><path class="cls-1" d="M6.81,263.05s-3.07,4.45-3.64,5.57-1.1,1.81,0,1.48,6-2.09,6.79-2.79S6.81,263.05,6.81,263.05Z"/><path class="cls-1" d="M10.88,269s-1.54,3.93-1.62,4.58a6.82,6.82,0,0,0,.57,3.19c.32.11,2.41-1.49,3.14-2.3s2.79-3.65,2.79-3.65Z"/><path class="cls-2" d="M180,216.34a1.8,1.8,0,0,1,2.28-.87c1.74.46,2.51.91,2.76,1.56s2.21,3.85,2.2,4.61a40.12,40.12,0,0,1-.85,4.5c-.15.5.18,1.35-.62,1.8s-6.9,4.21-8,4.26-4.55-1-5-.94a8.2,8.2,0,0,1-2.1-1.21Z"/><path class="cls-2" d="M19.12,237.48,12,246.24s-3,.63-3.51,1.34-3.26,3.2-3.28,11,6.54,12,6.54,12,8.13,3.31,8.9,3.17S31.15,271,33.32,269.6s2.63-3.1,4.55-4.13,4-.48,5-1.67,5.56-6.75,6.11-10.77S19.12,237.48,19.12,237.48Z"/><path class="cls-3" d="M160.55,268.88s-2.18,11.93-2.29,15.52,1.68,8.84,1.68,8.84l-.49,15.37L136.68,312l-9.25-26.56s-6.5,1.73-8.37,2-8.66,1.32-9.64,2.39-3.84,5.07-6.7,7-5.56,2.91-6.25,4-12.06,32.27-12.06,32.27L65.88,306.45s1.4-28.13,1.34-29.59-1.21-15.17-1-17A49.62,49.62,0,0,1,68,253.16Z"/><path class="cls-4" d="M47.89,32.86s-3-9.88-11-11.49-9.7-.39-13.63,2.1-5.87,9.11-5.72,13.93,3.25,13.49,5.83,15.29,6.31,4.2,9.58,3.7a23.73,23.73,0,0,0,5-1.21Z"/><path class="cls-4" d="M155.83,28.84s.79-7.32-1.13-10.77-6.25-9-8.61-9.85a12.31,12.31,0,0,0-7.16-.77c-2.1.58-6.65,2.54-6.65,2.54Z"/><path class="cls-5" d="M83.05,163.23S68.4,166.84,51,181s-31.71,42.71-31.45,44.55a8.38,8.38,0,0,1-.28,4.74,18,18,0,0,0-1.63,6.29c.07,1.76,1.59,6.11,2.64,6.91s9.65,6.91,13.1,8.13,9.85,4.3,11.75,4.17,3.12.75,4.35-.32,2.41-5,4.18-6.64,4.9-4,5.61-4.86a35.55,35.55,0,0,0,2.27-4.1s20.55-22.52,20.55-23.72S83.05,163.23,83.05,163.23Z"/><path class="cls-5" d="M158.2,171.09s4.25,1.36,5.46,3.36,4.36,9.46,5.88,11.11a97.29,97.29,0,0,1,6.66,8.06,49.12,49.12,0,0,1,4.21,7.5,20,20,0,0,1,1.58,6.49c.12,2.26-1.85,5.11-1.65,5.85s1.6,2.82.92,4.95-3.29,8.57-4.59,9.66-1.52,1.7-3.63,2.43a5.85,5.85,0,0,1-4.3-.52Z"/><path class="cls-6" d="M135.68,158.64l9.36,2.24,6,32.19s3.14,41.12,2.38,43.2-5.28,38.34-5.28,38.34a10.25,10.25,0,0,1-3.33,1.69c-1.32.19-6.46.55-6.83.89s-26.46-111-26.46-111Z"/><path class="cls-7" d="M120.75,168.81l.53,1.37a6.27,6.27,0,0,1,2.56,1.64c1,1.12,1.82,3.78,2.44,5.41s1.74,4.26,1.81,4.68.2,2.54.2,2.54,3.18.3,4.22,2,4.88,6,5.09,8.91,4,11,4.48,13,2.58,20.31,2.63,23.17.52,31,.11,32.5-.71,3.86-.71,3.86-.78,7.86-2.29,9.13-4.73,2.2-8.51,3.25a29.19,29.19,0,0,1-7.68,1.24c-2.06.09-16.38-3-18.34-3.45S84.56,269.64,82.71,269,72,262.2,70.17,260.6s-3.48-4.94-4.25-6.44-4.35-14.26-4.35-14.26a195.41,195.41,0,0,0,11.37-34.59C77.45,185.57,80,178,80.22,177a81.72,81.72,0,0,0,.72-9.33,79.18,79.18,0,0,0-1.63-8.43s26.57-8.36,31.64-6.81S120.75,168.81,120.75,168.81Z"/><path class="cls-7" d="M142.2,150.3s6.74.71,9.27,3.43,4.27,4.14,4.73,7.45-.29,6.28.46,7.19,2.36,1.48,3.05,3.81,3.38,8.86,4.11,10.77,4.12,17,4.25,20.27-.18,11.51.25,13.93a83.65,83.65,0,0,1,1.45,11.09c.14,4,.87,11.41-.62,17.66s-2.75,12.89-3.19,13.55-1.35,8.18-2.25,9.22a33.29,33.29,0,0,1-6.86,4.71c-2,1-7.1,3.81-7.9,3.81s-3,.84-3-2.05.5-18.5.75-20.19,1-7.13.11-10.39-3-12.7-2.93-14.2-2.3-27.39-1.42-29.52,4.82-14.47,4.87-17.48-.6-11.71-1.47-13.47-5-8.64-5.65-9.59-3.86-7.78-3.86-7.78Z"/><path class="cls-4" d="M80,161.76s-27.61,1.59-39.22-15.92-15.87-27.08-14.33-42.6c.34-3.43.8-18.06,8-41.88,3-9.72,4.44-14.57,6.92-19.43A79.2,79.2,0,0,1,62.8,15.85C69,10.94,80.45,2,97.9.28c18.44-1.77,32.34,5.41,35.83,7.81,8.91,6.15,20.94,18.38,22.57,20.69s10.63,12.91,12.57,18,6.82,13.74,8.69,15.72,11.95,13.12,14.14,19.45,3.48,16.14.11,25.49-10.07,24.66-17.17,28.94-17.71,9.9-23.57,12.14l-13.29,5.07,3.94,8.57s-7.41,4.62-11,5.31-10,1.35-10,1.35-6.24-6.69-8.06-7.29-11.49-4.42-15.16-4.26-7.93,2-8.22,2a20.63,20.63,0,0,0-4.48.27A13.31,13.31,0,0,0,80,161.76Z"/><path class="cls-1" d="M128.19,303.62h0c-.22,3.57-.11,9.6-.54,10.56s-2,.64.59,4.15,4.17,6,6.74,7.48,4.33,2.23,5.76,4.67,4.87,6.5,6.29,9.44,4.7,8.65,7.28,10.45,12.55,9.74,17.49,9.79,10.86-2.05,12-3.23,6.29-7.47,6.58-10a26.65,26.65,0,0,0-1.15-11.58c-1.59-4.54-7.84-16.34-10.59-19.17s-10.07-10.11-11.79-11.1-4.76-2.29-4.79-3.54.19-9.57.21-10.13a.43.43,0,0,0,0-.05c-.13-.36-1.51-4.14-2.48-5.2-.56-.6-1-1.09-1.21-1.4a.16.16,0,0,0-.29.1c0,2.2.12,11,0,12.14-.11.85-1.08,1.29-1.79,1.5a.89.89,0,0,1-1.06-.48c-1.12-2.37-3.64-10.2-4.9-10.45s-12.4,2.15-13.68,3.08c-.78.58.74,10.22.06,10.88s-3,.71-3.55-.21c-.37-.68-4.06-11.14-4.72-12.72a.16.16,0,0,0-.31.06Z"/><path class="cls-1" d="M66.39,296.06l6.52-3.31a1,1,0,0,1,.88,0l13.92,6.72a1,1,0,0,1,.56.77L89.46,310a1,1,0,0,0,.69.83l1.28.4a1,1,0,0,0,1.23-.59l2.76-7.31s2.63,1.07,2.12,2.46c0,0-5.73,10.4-5.82,11.55A32.48,32.48,0,0,0,94,326.75c1.35,3.15,13,27.05,12.93,31.34s.14,11.29-1.33,14.09-7.11,7.19-10.71,7.53-13.62-.48-19-5.72-10-7.69-12.33-14.7a66.63,66.63,0,0,1-3.7-15.15c-.55-4.57-.9-8.62-2.55-12.16s-4-7.86-3.85-9.29S57,315,57.21,311.23s4.72-17.33,4.72-20.46-.45-2,.74-3A18.59,18.59,0,0,1,67,285.56Z"/><path class="cls-8" d="M63.47,359.29a66.63,66.63,0,0,1-3.7-15.15c-.55-4.57-.9-8.62-2.55-12.16s-4-7.86-3.85-9.29c.13-.88,1.51-3.62,2.58-6.49h0s2.91,6.54,3.71,8.62a35.27,35.27,0,0,1,1.83,7.66c0,1.38-.32,9.08.32,11.52s4.53,12.9,6.38,14.88,2,5.39,5.76,6.76a47.33,47.33,0,0,1,9.73,5.14c1.67,1.26,4.19,3.68,8,3.22s7.63.17,9-1.74,4.42-5.37,4.89-7.54c.2-1,.76-2.83,1.32-4.63,0,4.22-.06,9.7-1.31,12.09-1.47,2.8-7.11,7.19-10.71,7.53s-13.62-.48-19-5.72S65.84,366.3,63.47,359.29Z"/><path class="cls-8" d="M154.31,350.38c-2.58-1.8-5.86-7.51-7.28-10.45s-4.86-7-6.29-9.44-3.2-3.16-5.76-4.67-4.21-4-6.74-7.48-1-3.19-.59-4.15a2.25,2.25,0,0,0,.09-.3,30.57,30.57,0,0,1,5.69,4c1.69,1.84,4,2.86,5.56,4.15s5.72,3.78,7.49,5.8,4.88,11.47,10.47,14.91,11.18,6.61,15.72,7.54,4.48,2.36,7.51.9,5.21-1.19,6.82-3.5c.94-1.34,2.43-3.5,3.52-5.08a27.5,27.5,0,0,1-.16,4.4c-.29,2.5-5.46,8.8-6.58,10s-7,3.29-12,3.23S156.89,352.19,154.31,350.38Z"/><path class="cls-9" d="M130.12,305.23s-3.74-.43-5.58-2.17c-.78-.74-.81-2.53-.52-3.53a4.8,4.8,0,0,1,2.28-3.07,19.53,19.53,0,0,1,2.89-1.3"/><path class="cls-10" d="M129.53,305.82s-3.87-.37-5.53-2.28c-1-1.19-1-2.66-.6-4.26a5.59,5.59,0,0,1,2.5-3.36,24.09,24.09,0,0,1,3-1.46"/><path class="cls-10" d="M130.69,304.59s-3.46-.06-5.3-1.8a3,3,0,0,1-.67-3,4,4,0,0,1,2.48-3,16,16,0,0,1,2.33-.76"/><polygon class="cls-11" points="133.6 303.86 133.53 308.52 129.44 307.08 129.48 302.65 133.6 303.86"/><polygon class="cls-1" points="133.16 304.23 133.1 307.89 129.89 306.76 129.92 303.27 133.16 304.23"/><polygon class="cls-11" points="132.66 304.64 132.62 307.17 130.41 306.39 130.42 303.98 132.66 304.64"/><path class="cls-1" d="M128.25,293.11l1.75-.67c.54,1.49,1.15,3.19,1.7,4.7l-3.48,1.33Z"/><path class="cls-9" d="M60.1,308.49s-3.6-1.13-5.07-3.19c-.62-.87-.32-2.63.15-3.56A4.8,4.8,0,0,1,58,299.16a19.09,19.09,0,0,1,3.08-.73"/><path class="cls-10" d="M59.41,309s-3.74-1.09-5-3.28c-.79-1.37-.51-2.81.21-4.31a5.66,5.66,0,0,1,3.1-2.82,23.31,23.31,0,0,1,3.24-.86"/><path class="cls-10" d="M60.78,308s-3.39-.72-4.86-2.77a3,3,0,0,1-.1-3.05,4,4,0,0,1,3-2.47,15.51,15.51,0,0,1,2.44-.31"/><polygon class="cls-11" points="63.77 307.8 62.82 312.37 59.08 310.18 59.96 305.83 63.77 307.8"/><polygon class="cls-1" points="63.27 308.08 62.52 311.67 59.59 309.95 60.27 306.53 63.27 308.08"/><polygon class="cls-11" points="62.7 308.39 62.19 310.87 60.16 309.68 60.63 307.32 62.7 308.39"/><path class="cls-1" d="M59.45,301.46c.67-2.49,1.36-5,1.84-7l2.76,7.21-3.95,1.51Z"/><path class="cls-1" d="M28.62,270.89s-3.06-1-4-.41-2.74,2.09-2.84,2.72,1.6,5.11,1.6,5.11,4.75-5,4.85-5.54S28.62,270.89,28.62,270.89Z"/><path class="cls-12" d="M181.43,124.8a48.25,48.25,0,0,1-2.28,7.43c5.32-6.46,10-17.47,12.66-24.8,3.37-9.35,2.09-19.16-.11-25.49s-12.27-17.48-14.14-19.45-6.75-10.64-8.69-15.72-10.94-15.68-12.57-18S142.64,14.24,133.73,8.09C130.24,5.69,116.34-1.49,97.9.28A56.74,56.74,0,0,0,89,1.85C95,3.9,102.3,6.23,107.63,7.49c10.91,2.59,24.55,7.72,32.25,18s22,29.75,24,31.07,6.84,6.17,10.69,13.14,11.63,20,10.11,32.25S182.5,118.91,181.43,124.8Z"/><path class="cls-12" d="M146.09,8.22A12.5,12.5,0,0,0,139,7.43c2.38.79,5,1.9,6.39,3.23,2.82,2.75,7.25,7.28,8.17,9.2.66,1.38,1.49,6.1,1.9,8.68l.37.3s.79-7.32-1.13-10.77S148.45,9.12,146.09,8.22Z"/><path class="cls-12" d="M176.2,193.62a97.29,97.29,0,0,0-6.66-8.06c-1.52-1.65-4.67-9.11-5.88-11.11-.78-1.29-2.82-2.31-4.17-2.87-.77-1.83-2.16-2.39-2.83-3.21s0-3.89-.46-7.19-2.2-4.74-4.73-7.45c-1.45-1.55-4.25-2.45-6.4-2.93l-3.44,1.31c2.52,1,5.39,2.45,7.08,4.7,3.54,4.68,4.68,6.85,5.51,11.2a10.22,10.22,0,0,0,4.45,6.45s4.57,4.76,6.46,7.25,5.3,10.67,6.23,12,5.4,5.86,6.24,6.84,1.62,4.5,2.93,5a8.88,8.88,0,0,1,1.35.81,21.9,21.9,0,0,0-1.47-5.31A49.12,49.12,0,0,0,176.2,193.62Z"/></g></g></g></svg>