<svg xmlns="http://www.w3.org/2000/svg" viewBox="0 0 39.67 39.67"><defs><style>.cls-1{fill:#fff;}.cls-2{fill:#265787;}.cls-3{fill:#ea7600;}</style></defs><g id="Layer_2" data-name="Layer 2"><g id="Layer_1-2" data-name="Layer 1"><rect class="cls-1" width="39.67" height="39.67" rx="5.81"/><path class="cls-2" d="M20.45,21.28a3.39,3.39,0,0,1,1.22-2.39,4.18,4.18,0,0,1,5.28,0,3.39,3.39,0,0,1,1.22,2.39,3.31,3.31,0,0,1-1,2.57,4.14,4.14,0,0,1-5.66,0A3.28,3.28,0,0,1,20.45,21.28Z"/><path class="cls-3" d="M14.29,23.21a7.7,7.7,0,0,0,.3,1.67,9,9,0,0,0,1.9,3.29,10,10,0,0,0,3.33,2.39,10.92,10.92,0,0,0,8.73,0,9.9,9.9,0,0,0,3.32-2.4,9,9,0,0,0,1.9-3.29A7.86,7.86,0,0,0,34.12,23a8,8,0,0,0-.06-1.83,8.23,8.23,0,0,0-1.21-3.31,9.16,9.16,0,0,0-2.21-2.44h0L21.7,8.56h0a2,2,0,0,0-2.22,0,1,1,0,0,0-.14,1.69h0l3.73,3H11.66a2.07,2.07,0,0,0-2,1.4c-.19.79.45,1.45,1.43,1.46h5.76L6.55,24l0,0a2,2,0,0,0-.67,2.76,2.07,2.07,0,0,0,2.91,0l5.62-4.59A7.64,7.64,0,0,0,14.29,23.21Zm14.42,2.08a6.48,6.48,0,0,1-9.06,0,5.33,5.33,0,0,1-1.23-1.93,5.1,5.1,0,0,1-.29-2.16,5.27,5.27,0,0,1,.62-2,5.63,5.63,0,0,1,1.38-1.63,6.52,6.52,0,0,1,8.1,0,5.61,5.61,0,0,1,1.38,1.63,5.16,5.16,0,0,1,.62,2,5,5,0,0,1-.29,2.16A5.45,5.45,0,0,1,28.71,25.29Z"/></g></g></svg>