<svg xmlns="http://www.w3.org/2000/svg" viewBox="0 0 227.61 125.44"><defs><style>.cls-1{fill:#b5c8f4;opacity:0.3;}</style></defs><g id="Layer_2" data-name="Layer 2"><g id="Layer_1-2" data-name="Layer 1"><path class="cls-1" d="M115.15,19.11c-15-.05-18.72,6.42-29.34,10.1a54.55,54.55,0,0,1-11.37,2.26C56.9,33.11,32,15.24,32,15.24,18,5.15,14.81-1.28,9.27.22,3.46,1.79-1.26,11.06.3,18.63,2.89,31.09,21,31.41,22.84,42.86c1.54,9.35-9.87,13-8.24,21.8,2.32,12.57,28.05,19,36.87,21.14s11.15,1.73,20.07,4.55c12.75,4,20.73,8.62,23.26,16,1.73,5.06-.59,7.18,1.45,10.9,5.52,10.09,31.86,11.49,40,.73,4.55-6,.92-12.66,5.81-16s12.75.23,20.35,3.63c14.36,6.42,15,11.54,23.26,13.08,12.89,2.42,27.53-7.13,26.9-12.35-.79-6.48-25.07-6.2-25.44-11.63-.46-6.66,35.94-7.32,40.1-22.36,3.45-12.49-16.05-32.18-36.47-38.7-10.86-3.47-12.11-.06-30.53-2.91C134.12,26.71,132.14,19.18,115.15,19.11Z"/></g></g></svg>