<svg xmlns="http://www.w3.org/2000/svg" viewBox="0 0 177.01 148.04"><defs><style>.cls-1{fill:#b5c8f4;opacity:0.3;}</style></defs><g id="Layer_2" data-name="Layer 2"><g id="Layer_1-2" data-name="Layer 1"><path class="cls-1" d="M0,22.4C-.77,33,17.64,34.88,22.66,53c4.81,17.36-9.2,26.14-3.21,40.14,6.89,16.1,32.11,20.15,34.72,20.54,18.82,2.79,28.48-5.94,36.56.84,7.15,6,1.52,15.11,9.53,23.65,10.2,10.89,30.23,12.34,33.7,6.49,4.94-8.33-22.82-32.74-20.35-35.26,1.48-1.5,9.81,8.83,23.14,10.5,11.72,1.48,25.69-4,33.48-14.79,13-18,5.37-46.27-6.23-50.39-13.15-4.66-26.14,23.52-45.23,20.63-15-2.26-29.35-19.63-28-33,.56-5.57,3.44-6.29,3.54-11.12C94.59,17.9,73,3.32,53,.56,28.73-2.8,1,9.6,0,22.4Z"/></g></g></svg>