<svg xmlns="http://www.w3.org/2000/svg" viewBox="0 0 28.67 28.67"><defs><style>.cls-1{fill:#fff;}.cls-2{fill:#fefefe;}.cls-3{fill:#090909;}.cls-4{fill:#1785e5;}</style></defs><g id="Layer_2" data-name="Layer 2"><g id="Layer_1-2" data-name="Layer 1"><path class="cls-1" d="M14.34,28.07A13.74,13.74,0,1,1,28.07,14.34,13.75,13.75,0,0,1,14.34,28.07Z"/><path d="M14.34,1.2A13.14,13.14,0,1,1,1.2,14.34,13.13,13.13,0,0,1,14.34,1.2m0-1.2A14.34,14.34,0,1,0,28.67,14.34,14.35,14.35,0,0,0,14.34,0Z"/><path class="cls-2" d="M14.57,13.63l-1.9.62c0-.19,0-.33.06-.46A18.27,18.27,0,0,0,13,11a.76.76,0,0,0-.2-.6A2.44,2.44,0,0,0,11.2,9.8c-.24,0-.33.13-.28.36a2.31,2.31,0,0,1,.05.46,16.27,16.27,0,0,1-.41,3.8c0,.14-.09.17-.22.16A5.58,5.58,0,0,1,9,14.37a1.73,1.73,0,0,1-1.37-2.13A4.18,4.18,0,0,1,9,9.69,7.55,7.55,0,0,1,16.71,8.1a5.49,5.49,0,0,1,3.68,6.15,6.28,6.28,0,0,1-3,4.27,11.53,11.53,0,0,1-4.83,1.77,7.43,7.43,0,0,1-3-.09C8.88,20,8.2,19.69,8,18.83c0-.15-.14-.12-.24-.08a.79.79,0,0,0-.42.84,4.77,4.77,0,0,0,.43,1.34,2.67,2.67,0,0,0,1.3,1.31,4.8,4.8,0,0,0,1.48.41A10.64,10.64,0,0,0,15.36,22a12.64,12.64,0,0,0,5.51-3.57,7.06,7.06,0,0,0,1.16-8A7.55,7.55,0,0,0,15.94,6.1,9.73,9.73,0,0,0,8.53,7.89,6.49,6.49,0,0,0,6.24,10.6,4.29,4.29,0,0,0,6,13.1a2.76,2.76,0,0,0,2.4,2.14,9.29,9.29,0,0,0,2,.11,13.49,13.49,0,0,1-.83,2.59c-.09.18-.06.28.08.38a3.54,3.54,0,0,0,1.54.64.33.33,0,0,0,.38-.19,4.36,4.36,0,0,0,.33-.77,23.87,23.87,0,0,0,.65-2.78.47.47,0,0,1,.35-.43c.68-.21,1.35-.45,2-.68,0,.46-.19.91-.2,1.4a2.94,2.94,0,0,0,.81-.41.94.94,0,0,1,1.25,0,2.59,2.59,0,0,0,.85.41c-.08-.47-.16-.91-.23-1.34a.49.49,0,0,1,.21-.53,9.69,9.69,0,0,0,.92-.9c-.5-.08-.95-.16-1.41-.22a.34.34,0,0,1-.3-.22c-.19-.43-.41-.84-.64-1.32-.24.48-.45.89-.65,1.32a.34.34,0,0,1-.31.21l-1.38.2a2,2,0,0,0,.33.4C14.27,13.28,14.5,13.39,14.57,13.63Z"/><path class="cls-3" d="M14.87,14.11c-.68.23-1.35.47-2,.68a.47.47,0,0,0-.35.43A23.87,23.87,0,0,1,11.84,18a4.36,4.36,0,0,1-.33.77.33.33,0,0,1-.38.19,3.54,3.54,0,0,1-1.54-.64c-.14-.1-.17-.2-.08-.38a13.49,13.49,0,0,0,.83-2.59,9.29,9.29,0,0,1-2-.11A2.76,2.76,0,0,1,6,13.1a4.29,4.29,0,0,1,.28-2.5A6.49,6.49,0,0,1,8.53,7.89,9.73,9.73,0,0,1,15.94,6.1,7.55,7.55,0,0,1,22,10.41a7.06,7.06,0,0,1-1.16,8A12.64,12.64,0,0,1,15.36,22a10.64,10.64,0,0,1-4.81.65,4.8,4.8,0,0,1-1.48-.41,2.67,2.67,0,0,1-1.3-1.31,4.77,4.77,0,0,1-.43-1.34.79.79,0,0,1,.42-.84c.1,0,.21-.07.24.08.2.86.88,1.16,1.63,1.37a7.43,7.43,0,0,0,3,.09,11.53,11.53,0,0,0,4.83-1.77,6.28,6.28,0,0,0,3-4.27A5.49,5.49,0,0,0,16.71,8.1,7.55,7.55,0,0,0,9,9.69a4.18,4.18,0,0,0-1.35,2.55A1.73,1.73,0,0,0,9,14.37a5.58,5.58,0,0,0,1.34.21c.13,0,.19,0,.22-.16a16.27,16.27,0,0,0,.41-3.8,2.31,2.31,0,0,0-.05-.46c-.05-.23,0-.37.28-.36a2.44,2.44,0,0,1,1.58.63.76.76,0,0,1,.2.6,18.27,18.27,0,0,1-.25,2.76c0,.13,0,.27-.06.46l1.89-.62C14.79,13.71,14.94,13.84,14.87,14.11Z"/><path class="cls-4" d="M14.87,14.11c.07-.27-.08-.4-.31-.48-.06-.24-.29-.35-.44-.52a2,2,0,0,1-.33-.4l1.38-.2a.34.34,0,0,0,.31-.21c.2-.43.41-.84.65-1.32.23.48.45.89.64,1.32a.34.34,0,0,0,.3.22c.46.06.91.14,1.41.22a9.69,9.69,0,0,1-.92.9.49.49,0,0,0-.21.53c.07.43.15.87.23,1.34a2.59,2.59,0,0,1-.85-.41.94.94,0,0,0-1.25,0,2.94,2.94,0,0,1-.81.41C14.68,15,14.83,14.57,14.87,14.11Z"/></g></g></svg>