<svg xmlns="http://www.w3.org/2000/svg" viewBox="0 0 53.07 14.67"><defs><style>.cls-1{fill:#fff;}</style></defs><g id="Layer_2" data-name="Layer 2"><g id="Layer_1-2" data-name="Layer 1"><path class="cls-1" d="M22.92,6.23a1.44,1.44,0,0,0-.13-1.34.81.81,0,0,0-1.17-.27.75.75,0,0,0-.07,1.14,4.75,4.75,0,0,0,1,.93,6.69,6.69,0,0,1,1.08,1,2,2,0,0,1-.2,2.78,3.19,3.19,0,0,1-4.15.22c-.23-.18-.31-.05-.46.06a2.75,2.75,0,0,1-2,.63,1.57,1.57,0,0,1-1.43-1.29,6.26,6.26,0,0,1,.17-2.62c.12-.77.27-1.54.39-2.32.08-.54-.05-.64-.58-.52-.77.17-.78.17-.66,1a6.24,6.24,0,0,1-2,5.71,11.18,11.18,0,0,1-8.4,3.24,2.85,2.85,0,0,1-3-2.47,1,1,0,0,1,0-.65.46.46,0,0,1,.33-.29c.22,0,.21.16.27.29a2.09,2.09,0,0,0,2,1.07A9.21,9.21,0,0,0,11.43,9.8,4.79,4.79,0,0,0,12.7,6c0-.32-.11-.43-.48-.3q-3,1.05-6,2.05a.59.59,0,0,0-.46.54,16.88,16.88,0,0,1-.65,2.61c-.16.44-.41.59-.85.43L4,11.21c-.88-.32-.91-.4-.61-1.24.15-.44.26-.9.41-1.34s0-.4-.3-.38a5.12,5.12,0,0,1-1.17-.08A2.49,2.49,0,0,1,.06,5,4.61,4.61,0,0,1,1.41,2.53a8.61,8.61,0,0,1,9.93-1.46,6.33,6.33,0,0,1,2.77,2.86c.16.34.32.36.64.24.72-.26,1.44-.51,2.18-.72s1.15.07,1,.9c-.24,1.48-.51,3-.76,4.43a2.09,2.09,0,0,0,0,.61.54.54,0,0,0,.7.53c.34-.07.77-.09.56-.69a1.61,1.61,0,0,1,.08-1.16.8.8,0,0,1,.86-.59c.42,0,.6.32.71.69a1.79,1.79,0,0,1,0,.83.75.75,0,0,0,.7,1,1.07,1.07,0,0,0,1.09-.44,1.13,1.13,0,0,0,.06-1.27,4.07,4.07,0,0,0-1.08-1.07,6.2,6.2,0,0,1-1.08-1,1.41,1.41,0,0,1,.13-2,3.36,3.36,0,0,1,3.51-.61c.77.36,1.16.89,1.07,1.48S23.78,6.1,22.92,6.23ZM6,7.23c2.14-.62,4.17-1.44,6.23-2.16.33-.12.19-.29.11-.46A5.09,5.09,0,0,0,9.48,2a6.53,6.53,0,0,0-3.61-.2,5.32,5.32,0,0,0-4,2.72c-.89,1.72-.26,2.84,1.66,3,.39,0,.54-.08.59-.44A11,11,0,0,0,4.4,3.81c0-.21,0-.36.27-.39a1.35,1.35,0,0,1,1.54,1.4C6.16,5.6,6.07,6.38,6,7.23Z"/><path class="cls-1" d="M27.26,4.25l.2-.12C29,2.92,30.4,3.81,30.74,5.47a5.22,5.22,0,0,1,0,2,3.11,3.11,0,0,0,.86-1.65c.3-1.77.62-3.54.9-5.31.05-.31.14-.4.46-.41,1.5,0,1.56,0,1.29,1.53Q33.72,4.81,33.18,8a3.75,3.75,0,0,0,0,1.73c.13.43.42.54.77.3a1.74,1.74,0,0,0,1-1.56,5.61,5.61,0,0,1,2-4.57,1.92,1.92,0,0,1,3.28.85.45.45,0,0,0,.51.36c.52,0,.64.18.5.71A6.72,6.72,0,0,0,41,8.55a2.65,2.65,0,0,0,1,1.87c.31.23.21.37,0,.56a1.48,1.48,0,0,1-2.15-.15,9.71,9.71,0,0,1-.56-.82,3.44,3.44,0,0,1-1.93,1.31,1.87,1.87,0,0,1-2-1.11c-.73,1-1.63,1.55-2.83,1s-1.35-1.73-1.27-3a1.87,1.87,0,0,0-.94,1,3.8,3.8,0,0,1-1,1.53,2,2,0,0,1-3.1,0c-.2,1.23-.42,2.41-.57,3.6-.05.39-.17.43-.49.36-1.08-.22-1.41-.67-1.23-1.76.49-3,1-5.94,1.49-8.92.06-.33.19-.49.55-.44a2.61,2.61,0,0,0,.56,0C27,3.5,27.34,3.59,27.26,4.25ZM37,8.35A3.11,3.11,0,0,0,37,9c.09.39.12.89.61,1s.7-.3.91-.63a5.4,5.4,0,0,0,.81-3.63c0-.37-.13-.78-.55-.89s-.69.25-.9.55A5.35,5.35,0,0,0,37,8.35ZM29.12,6.1a4.33,4.33,0,0,0-.05-.5c-.06-.33-.11-.7-.5-.81s-.66.18-.89.45c-1.1,1.37-.89,2.37.59,2.93.31.12.47.11.56-.25A7.54,7.54,0,0,0,29.12,6.1Zm-2.5,2.05a2.63,2.63,0,0,0,.05,1.1c.09.35.19.74.64.7s.72-.43.94-.8C28.34,9,28.18,9,28.07,9A2.35,2.35,0,0,1,26.62,8.15Z"/><path class="cls-1" d="M46.57,9.92l-.57.7a1.94,1.94,0,0,1-2.31.65,2.21,2.21,0,0,1-1.45-2,19.55,19.55,0,0,1,.5-3.89c.17-1.14.2-1.14-.92-1.14a5.15,5.15,0,0,1-.68,0,.5.5,0,0,1-.46-.54c0-.39.29-.23.49-.24.62,0,1.4.21,1.81-.09s.27-1.15.39-1.75c0-.14.07-.29.09-.44C43.65,0,43.79-.1,45,.08c.45.07.53.38.48.74-.11.72-.23,1.44-.38,2.16-.07.36,0,.51.41.46s.48,0,.73,0,.43.22.43.52-.2.32-.45.3c-1.27-.09-1.29-.09-1.52,1.16a20.56,20.56,0,0,0-.52,3.49c0,.44-.11,1,.39,1.2s.84-.29,1.14-.63a2.29,2.29,0,0,0,.63-1.55,5.53,5.53,0,0,1,1.66-4,2.43,2.43,0,0,1,.58-.43A1.71,1.71,0,0,1,51.22,5a4,4,0,0,1-2.78,3.86c-.31.07-.28.21-.21.43a1.21,1.21,0,0,0,1.8.74,3.39,3.39,0,0,0,1.12-1,9.2,9.2,0,0,0,1.26-2.3c.07-.16.09-.4.38-.28s.33.21.26.43c-.58,1.71-1.26,3.36-3,4.2C48.7,11.74,47.53,11.32,46.57,9.92ZM50.21,5.3c-.06-.18,0-.44-.26-.56s-.47.06-.64.22a4.35,4.35,0,0,0-1.2,2.82c0,.23.08.3.29.26A1.27,1.27,0,0,0,49,7.78,3.77,3.77,0,0,0,50.21,5.3Z"/><path class="cls-1" d="M18.61,1a1.27,1.27,0,0,0-.51,1.55,1.23,1.23,0,0,0-1.61,0c.13-.62.17-1.18-.55-1.54A1.2,1.2,0,0,0,17.26,0C17.57.65,17.8,1.2,18.61,1Z"/></g></g></svg>