<svg xmlns="http://www.w3.org/2000/svg" viewBox="0 0 271.58 553.47"><defs><style>.cls-1{fill:#ed2a56;}.cls-2{fill:#f1e92c;}.cls-3{fill:#c2394d;}.cls-4{fill:#ee3c6b;}.cls-5{fill:#e3e6eb;}.cls-6{fill:#1f1012;}.cls-7{fill:#8e1926;}.cls-8{fill:#212023;}.cls-9{fill:#5b0e15;}.cls-10{fill:#0e0d13;}.cls-11{fill:#7d1417;}.cls-12{fill:#d0d5e0;}.cls-13,.cls-14{fill:none;stroke-miterlimit:10;}.cls-13{stroke:#e3e6eb;stroke-width:1.92px;}.cls-14{stroke:#3d3e42;stroke-width:0.32px;}.cls-15{fill:#3d3e42;}.cls-16,.cls-18{fill:#fff;}.cls-16{opacity:0.12;}.cls-17{fill:#ca197e;}</style></defs><g id="Layer_2" data-name="Layer 2"><g id="Layer_1-2" data-name="Layer 1"><g id="Beam"><path class="cls-1" d="M92.88,547.32H249.73c-22.44-77.59-49.59-157-88.67-244.86C115.91,201,93.36,175,91.88,191.79c-2.64,30.08.1,190.28,1,354.89Z"/><path class="cls-2" d="M92.12,442.73c.18,21.66.36,43.92.52,66.45,60.83-2.07,107.86-21.1,130.8-46.34-12-35.91-25.57-72.67-41.23-110.88-5.29.09-10.75-.18-17.57-3.69-18.34-9.47-21.4-29.61-27.61-28.53-8.89,1.55-6.24,43.47-11.35,44.06-6.72.77-19.17-70.84-22.61-70.34-2.58.38,4.48,40.74,2.53,79.48A257.19,257.19,0,0,1,92.12,442.73Z"/><path class="cls-3" d="M247.14,538.41q-4.32-14.71-8.89-29.55c-30.66-18.92-45.91-49.62-56.72-72.05-24.69-51.24-23.87-90.71-30-90.52-11.63.36-12.22,143.78-27,144.6-9,.5-19-52.42-23.37-51.51-2.42.51.21,17.07-.09,31.32a110.64,110.64,0,0,1-8.42,39.48c.08,12.11.16,24.3.23,36.5,0,2.25,0,4.52,0,6.79C165.38,547.25,214.65,542.32,247.14,538.41Z"/><path class="cls-4" d="M109.74,260c-.24,21.83,15.58,35.69,17.23,37.09,1.49,1.26,14.46,12.26,19.26,8.79,6.68-4.83-7.63-34-13.2-45.35-6.1-12.44-11.23-22.69-16-21.95C112.1,239.37,109.83,252.05,109.74,260Z"/></g><g id="Kanye_bear_top" data-name="Kanye bear top"><path class="cls-5" d="M36.51,179.15s-2-.25-2.34.11a3.67,3.67,0,0,0-.61.74s.26.73.66.86,2,.39,2,.39Z"/><path class="cls-5" d="M35.85,181.67a13.89,13.89,0,0,0-2.47,1.27c-.36.38-.48.54-.45.66a2.62,2.62,0,0,0,1.33,1.08c.68.19.9.38,1.23.33s1.09-1.22,1.09-1.22Z"/><path class="cls-5" d="M36.91,184.8A21.51,21.51,0,0,0,33.8,187c-.18.4-.35.87-.26,1.06s-.18.11,1,.06a7.51,7.51,0,0,0,2.11-.34,11.58,11.58,0,0,0,1.66-1.19Z"/><path class="cls-5" d="M39.65,187.32,38.53,192s-.25,1,.49.72a47.49,47.49,0,0,0,5.79-4.41C45,188.07,39.65,187.32,39.65,187.32Z"/><path class="cls-5" d="M171.3,161.23s2.19-1.52,3.54-1.19c.68.16,1.34,2.12,1.35,2.8a8,8,0,0,1-.31,2.23l-.67,1.64Z"/><path class="cls-5" d="M175.75,166a12.58,12.58,0,0,1,3.54.51c.72.43,1.81.77,1.53,1.15a5.24,5.24,0,0,1-2.78,2c-1,.12-2.52.35-2.52.35Z"/><path class="cls-5" d="M176.79,172s3.27,2.54,4,3.23,1.22,1.07.33,1.09a30,30,0,0,1-5.61-.48C174.73,175.49,176.79,172,176.79,172Z"/><path class="cls-5" d="M175.19,177.27s2,2.51,2.25,3a5.23,5.23,0,0,1,.31,2.46,7.49,7.49,0,0,1-2.82-.95c-.61-.36-2.88-2-2.88-2Z"/><path class="cls-6" d="M39.49,177.73a1.38,1.38,0,0,0-1.87-.11c-1.17.74-1.62,1.24-1.66,1.78s-.73,3.33-.55,3.87a30.64,30.64,0,0,0,1.67,3.1c.22.33.17,1,.86,1.17s6,1.48,6.83,1.26,3.1-1.74,3.42-1.83,1.26-1.37,1.26-1.37Z"/><path class="cls-6" d="M161.91,156.13l7.21,4.76s2.37-.23,2.88.17,3.12,1.59,4.92,7.26-2,10.3-2,10.3-5.18,4.3-5.78,4.37-8.31.36-10.21-.13-2.63-1.65-4.27-2-3,.57-4-.08-5.61-3.65-6.94-6.46S161.91,156.13,161.91,156.13Z"/><path class="cls-7" d="M65.82,211.64s4.33,8.21,5.24,10.8a25.33,25.33,0,0,1,.81,6.85l3.89,11.12,17.43-2.74.64-21.54s5.15-.24,6.59-.44,6.63-1,7.59-.47,4,2.82,6.5,3.53,4.73.85,5.48,1.46S136.23,241,136.23,241l7.4-23.73s-7.5-20.22-7.79-21.31-2.61-11.35-3.17-12.67a36.7,36.7,0,0,0-2.87-4.45Z"/><path class="cls-8" d="M93.78,13.25s-.11-7.89,5.43-10.93,7-2.52,10.44-1.6S116,6,117,9.57s.72,10.61-.75,12.52-3.64,4.52-6.14,4.91a17.91,17.91,0,0,1-3.94.26Z"/><path class="cls-8" d="M14,35.17S11.73,30,12.34,27.05s2.51-8,4-9.18a9.47,9.47,0,0,1,5.06-2.21c1.66-.07,5.43.32,5.43.32Z"/><path class="cls-9" d="M98.11,116.6s11.53-.74,27.49,5.64,33,23.9,33.24,25.3a6.33,6.33,0,0,0,1.3,3.4,14,14,0,0,1,2.63,4.22c.36,1.31.25,4.83-.33,5.65s-5.46,7.28-7.7,9-6.21,5.41-7.62,5.75-2.11,1.27-3.26.77-2.92-3.12-4.58-3.89-4.5-1.78-5.22-2.25a27.88,27.88,0,0,1-2.6-2.48S111.25,156,111,155.07,98.11,116.6,98.11,116.6Z"/><path class="cls-9" d="M45,139.65s-2.79,2-3.22,3.71-1,7.91-1.74,9.47a74.5,74.5,0,0,0-3,7.42,37.46,37.46,0,0,0-1.35,6.45,15.3,15.3,0,0,0,.34,5.1c.44,1.69,2.53,3.31,2.55,3.9s-.52,2.43.47,3.83,4.38,5.5,5.58,6a6.55,6.55,0,0,0,3.21.94,4.46,4.46,0,0,0,3-1.37Z"/><path class="cls-10" d="M58.6,125.36l-6.32,3.8,3,24.9s7.17,30.77,8.21,32.11S76.18,213,76.18,213a8,8,0,0,0,2.83.47c1-.17,4.84-1.09,5.19-.92S78,125.32,78,125.32Z"/><path class="cls-11" d="M71.85,129.36l-.07,1.12a4.82,4.82,0,0,0-1.5,1.79,18.06,18.06,0,0,0-.53,4.51c-.08,1.34-.29,3.52-.24,3.84s.43,1.9.43,1.9-2.25.95-2.62,2.43-2.18,5.51-1.67,7.68-.39,9-.27,10.54,2.79,15.43,3.41,17.54,6.75,22.73,7.4,23.77,1.41,2.65,1.41,2.65,2.38,5.56,3.77,6.15,4,.52,7,.41a22.58,22.58,0,0,0,5.9-.86c1.52-.41,11.27-6,12.6-6.74s14.66-11.4,15.86-12.33,6.29-7.4,7.24-9a18.73,18.73,0,0,0,1.62-5.69c.22-1.27-.1-11.42-.1-11.42A148.71,148.71,0,0,1,115.19,145c-7.84-13.38-11.47-18.31-11.86-19a64.15,64.15,0,0,1-2.67-6.66,59.68,59.68,0,0,1-.75-6.53s-21.33,0-24.68,2.31S71.85,129.36,71.85,129.36Z"/><path class="cls-11" d="M51.92,120.78s-4.76,2.07-6,4.63-2.17,4-1.75,6.53,1.66,4.53,1.32,5.36-1.38,1.63-1.34,3.49-.44,7.25-.53,8.81.92,13.4,1.56,15.79,2.78,8.37,3,10.24a63.83,63.83,0,0,0,1.49,8.44c.82,3,2,8.54,4.52,12.75s5,8.79,5.45,9.17,2.87,5.67,3.77,6.22a25.43,25.43,0,0,0,6.09,1.86c1.7.25,6.07,1.15,6.65,1s2.36-.08,1.7-2.18-4.62-13.41-5.19-14.58-2.35-5-2.48-7.57a107.79,107.79,0,0,0-1.12-11.05c-.37-1.09-4.63-20.54-5.76-21.89s-6.86-9.47-7.59-11.65-2.26-8.7-2-10.18,1.66-7.47,1.92-8.31,1-6.57,1-6.57Z"/><path class="cls-8" d="M100,114.83s20.54-5.2,25-20.67,5.35-23.44.66-34.42c-1-2.42-4.75-13-15.52-28.75-4.4-6.41-6.59-9.62-9.53-12.6A60.72,60.72,0,0,0,79,4.26C73.29,2.11,62.87-1.83,49.74,1c-13.88,3-22.38,11.4-24.38,14-5.09,6.54-11.07,18.24-11.73,20.31s-4.79,11.88-5,16S6.78,62.89,5.87,64.76.16,77.1,0,82.23A30.37,30.37,0,0,0,5.8,100.87c4.62,6.06,13,15.71,19.21,17.2a144.39,144.39,0,0,0,20,3.44l10.87.64-.9,7.17s6.48,1.67,9.23,1.36,7.62-1.32,7.62-1.32,3-6.33,4.21-7.18,7.37-5.88,10.09-6.61a25.08,25.08,0,0,1,6.48-.4,15.8,15.8,0,0,1,3.34-.83A10,10,0,0,1,100,114.83Z"/><path class="cls-5" d="M97.45,229.57h0c1,2.55,2.29,7,2.83,7.58s1.56,0,.52,3.17-1.67,5.32-3.2,7S95,250,94.47,252.08s-2.06,5.87-2.42,8.35-1.44,7.4-2.91,9.31-6.92,10-10.53,11.18-8.4,1-9.49.4-6.32-4-7.11-5.77a20.6,20.6,0,0,1-1.82-8.72c.11-3.69,2-13.75,3.32-16.45s5-9.7,6.06-10.82,3-2.77,2.68-3.69-2.34-7-2.48-7.35v-.05a18.29,18.29,0,0,1,.61-4.36c.27-.57.45-1,.56-1.31a.12.12,0,0,1,.23,0c.49,1.61,2.44,8,2.83,8.86.28.6,1.09.7,1.65.69a.7.7,0,0,0,.67-.6c.27-2,.31-8.29,1.18-8.76s9.54-1.29,10.7-.9c.7.24,1.81,7.63,2.46,8s2.39-.19,2.54-1c.12-.58.41-9.07.52-10.38a.12.12,0,0,1,.24,0Z"/><path class="cls-5" d="M140.87,209.81l-5.53-.92a.81.81,0,0,0-.65.2l-8.62,8.11a.79.79,0,0,0-.23.7l1.39,7.44a.76.76,0,0,1-.31.76l-.85.59a.75.75,0,0,1-1-.15l-3.7-4.71s-1.68,1.39-1,2.29c0,0,6.58,6.28,6.91,7.1a25.12,25.12,0,0,1,.52,7.36c-.26,2.61-3.28,22.76-2.23,25.88s2.5,8.28,4.22,10,6.85,3.61,9.56,3,9.84-3.49,12.6-8.57,5.5-7.91,5.62-13.57a50.79,50.79,0,0,0-.79-11.93c-.65-3.46-1.32-6.5-.93-9.47s1.15-6.67.67-7.67-4.43-4.75-5.44-7.49-7.44-11.57-8.16-13.86-.13-1.54-1.24-2a14.24,14.24,0,0,0-3.65-.6Z"/><path class="cls-12" d="M157.56,255.34a50.79,50.79,0,0,0-.79-11.93c-.65-3.46-1.32-6.5-.93-9.47s1.15-6.67.67-7.67c-.3-.61-1.93-2.3-3.38-4.15h0s-.62,5.45-.72,7.16a27.57,27.57,0,0,0,.42,6c.3,1,2.32,6.56,2.42,8.5s-.33,10.46-1.23,12.34-.26,4.4-2.66,6.26a36.21,36.21,0,0,0-5.92,6c-.93,1.3-2.21,3.64-5.1,4.19s-5.53,1.88-7,.79-4.46-2.9-5.3-4.38c-.37-.65-1.21-1.89-2-3.07,1,3.07,2.27,7.06,3.74,8.52,1.72,1.71,6.85,3.62,9.56,3s9.84-3.49,12.6-8.57S157.44,261,157.56,255.34Z"/><path class="cls-12" d="M89.14,269.74c1.47-1.91,2.55-6.84,2.91-9.31s1.94-6.24,2.42-8.35,1.61-3,3.14-4.73,2.16-3.87,3.2-7,0-2.57-.52-3.17a1,1,0,0,1-.14-.2,23.39,23.39,0,0,0-3.24,4.21c-.82,1.73-2.25,3-3.11,4.31s-3.31,4.08-4.14,6-.92,9.5-4.21,13.3-6.65,7.41-9.75,9.14-2.73,2.75-5.28,2.38-4.09.33-5.79-1l-3.75-2.9A23.59,23.59,0,0,0,62,275.55c.79,1.76,6,5.17,7.11,5.77s5.89.78,9.49-.4S87.67,271.65,89.14,269.74Z"/><path class="cls-13" d="M96.41,231.19s2.64-1.18,3.58-2.88a3.1,3.1,0,0,0-.43-2.7,3.66,3.66,0,0,0-2.37-1.71,14,14,0,0,0-2.41-.28"/><path class="cls-14" d="M97,231.48s2.75-1.16,3.52-2.93a3.37,3.37,0,0,0-.54-3.26,4.34,4.34,0,0,0-2.61-1.88,18.11,18.11,0,0,0-2.54-.37"/><path class="cls-14" d="M95.85,230.85s2.52-.84,3.46-2.54a2.31,2.31,0,0,0-.2-2.32,3,3,0,0,0-2.5-1.62,11.81,11.81,0,0,0-1.88,0"/><polygon class="cls-15" points="93.56 230.99 94.69 234.38 97.34 232.38 96.29 229.15 93.56 230.99"/><polygon class="cls-5" points="93.97 231.15 94.85 233.81 96.93 232.25 96.11 229.71 93.97 231.15"/><polygon class="cls-15" points="94.43 231.34 95.04 233.18 96.48 232.1 95.91 230.34 94.43 231.34"/><path class="cls-5" d="M95,221.9l-1.44-.09c0,1.22-.11,2.6-.16,3.83l2.85.17Z"/><path class="cls-13" d="M148.32,217.45s2.37-1.66,3-3.5a3.11,3.11,0,0,0-.93-2.57,3.63,3.63,0,0,0-2.66-1.23,13.86,13.86,0,0,0-2.42.17"/><path class="cls-14" d="M148.93,217.63s2.48-1.66,2.9-3.55a3.33,3.33,0,0,0-1.14-3.09,4.36,4.36,0,0,0-2.92-1.36,19.05,19.05,0,0,0-2.56.12"/><path class="cls-14" d="M147.71,217.22s2.31-1.3,2.91-3.14a2.3,2.3,0,0,0-.63-2.25,3,3,0,0,0-2.76-1.12,12,12,0,0,0-1.85.34"/><polygon class="cls-15" points="145.48 217.79 147.23 220.9 149.46 218.44 147.82 215.47 145.48 217.79"/><polygon class="cls-5" points="145.91 217.88 147.28 220.32 149.03 218.39 147.75 216.05 145.91 217.88"/><polygon class="cls-15" points="146.4 217.97 147.35 219.66 148.56 218.33 147.67 216.72 146.4 217.97"/><path class="cls-5" d="M147.18,212.16c-1.07-1.67-2.15-3.34-3-4.7l-.35,5.9,3.23.19Z"/><path class="cls-5" d="M162.67,182.73s2-1.42,2.82-1.23a6.37,6.37,0,0,1,2.7,1.34,25.59,25.59,0,0,1,0,4.11,48.91,48.91,0,0,1-4.82-2.94Z"/><path class="cls-16" d="M125.65,59.74c-1-2.42-4.75-13-15.52-28.75-4.4-6.41-6.59-9.62-9.53-12.6A60.72,60.72,0,0,0,79,4.26C73.29,2.11,62.87-1.83,49.74,1A46.92,46.92,0,0,0,45,2.25C57,5.52,66.8,6.64,77.83,13.94c7.11,4.71,19.32,18.25,26.3,27.2,5,6.38,13.23,25.45,13.9,29.44s4.29,21.9,4,23.93a40.88,40.88,0,0,0,.14,5.76A22.24,22.24,0,0,0,125,94.16C129.44,78.69,130.34,70.72,125.65,59.74Z"/><path class="cls-16" d="M117,9.57c-1-3.55-4-7.94-7.39-8.85-2.56-.69-4-1.15-6.88-.09,4.06,1.27,8.62,3.47,9.76,7.1a80.05,80.05,0,0,1,3,15.26l.71-.9C117.76,20.18,118,13.13,117,9.57Z"/><path class="cls-16" d="M162.77,155.16a14,14,0,0,0-2.63-4.22,6.33,6.33,0,0,1-1.3-3.4c-.24-1.4-17.28-18.93-33.24-25.3a75.09,75.09,0,0,0-25.35-5.65c-.07-.61-.13-1.22-.18-1.78l-.07,0a10,10,0,0,0-4-.49,15.8,15.8,0,0,0-3.34.83,25.08,25.08,0,0,0-6.48.4,15.33,15.33,0,0,0-3.75,2,16.73,16.73,0,0,1,3.44,1.38c1.7,1.09,8.37.72,10.12,1.23s16,1.76,17.35,2.23,8.5,2.79,11.75,5,13.83,7.29,16,9.41,10.2,8.84,11.25,10.57a16.31,16.31,0,0,0,4.8,5c2,1.43,4.21,4,5.84,5.24A9.4,9.4,0,0,0,162.77,155.16Z"/></g><g id="Pink_Circle_small" data-name="Pink Circle small"><path class="cls-17" d="M168.4,319.19c10.14-.44,15.87.4,16.2,2.38.29,1.8-4,4.33-12.09,7.18.38.9.77,1.8,1.15,2.71,3.2-1,6.24-1.92,9.1-2.89a106.17,106.17,0,0,0,17-7c3.48-2,5.13-3.62,4.91-4.94-.42-2.59-8.06-3.62-21.51-2.89-5,.27-10.53.77-16.52,1.48Z"/><path class="cls-17" d="M78.58,349.06c3.89-.21,8.15-.56,12.7-1.05,0-1.45,0-2.91,0-4.35-8.83.24-13.79-.61-14.09-2.45s4.45-4.61,13.4-7.63l.6-.2c0-1,0-2,0-3-4.33,1.26-8.39,2.52-12.14,3.79a106.17,106.17,0,0,0-17,7c-3.48,1.95-5.13,3.61-4.92,4.93C57.49,348.77,65.13,349.79,78.58,349.06Z"/><path class="cls-17" d="M204.41,316l-20.84,4.45a1.75,1.75,0,0,1,1,1.16c.3,1.89-4.45,4.6-13.4,7.63A286.84,286.84,0,0,1,135.91,338,317.72,317.72,0,0,1,95,343.5c-7.82.43-13.27.16-16-.76L57.8,347.28c2.25,1.77,9.45,2.4,20.78,1.78,13.45-.73,31.25-3.14,50.12-6.78,9.61-1.85,19-3.93,28-6.19,9.76-2.45,18.52-5,26-7.52a106.17,106.17,0,0,0,17-7c3.48-2,5.13-3.62,4.91-4.94A1.4,1.4,0,0,0,204.41,316Z"/></g><g id="Whit_circle_Small" data-name="Whit circle Small"><path class="cls-18" d="M191.73,375.66c11.25-1.47,21.69-2.48,30.81-3,19.49-1.06,30.55.38,31.15,4.05.57,3.5-8.53,8.61-25.62,14.39-7.89,2.67-17.14,5.36-27.32,8,.27.72.55,1.45.82,2.18,13.75-3.51,26.11-7.11,36.77-10.71,11.31-3.82,19.93-7.38,25.64-10.6,5.36-3,7.91-5.58,7.57-7.64-.67-4.12-12.88-5.75-34.39-4.58-13.31.72-29.24,2.47-46.56,5.06C191,373.75,191.35,374.71,191.73,375.66Z"/><path class="cls-18" d="M75.77,422.28c5-.28,10.44-.7,16.16-1.25,0-1.26,0-2.52,0-3.78l-1.51.09c-19.49,1.06-30.55-.38-31.15-4-.57-3.51,8.53-8.62,25.62-14.39q3.27-1.11,6.86-2.22l0-2.57c-6.09,1.77-11.81,3.56-17.1,5.35-11.31,3.82-19.93,7.38-25.64,10.59-5.36,3-7.91,5.59-7.57,7.65C42,421.82,54.26,423.45,75.77,422.28Z"/><path class="cls-18" d="M268.15,369.39l-18.75,4.34c2.62.73,4.09,1.73,4.29,3,.57,3.5-8.53,8.61-25.62,14.39s-40.54,11.66-66,16.58c-26.71,5.16-52.16,8.58-71.65,9.64-11.84.64-20.57.36-25.74-.78L45.72,421c5.39,1.64,15.63,2.11,30.05,1.33,21.51-1.17,49.87-5,79.87-10.79,15-2.89,29.57-6.11,43.43-9.59,14.75-3.7,28-7.52,39.27-11.34S258.27,383.18,264,380c5.36-3,7.91-5.58,7.57-7.64C271.36,371.13,270.2,370.15,268.15,369.39Z"/></g></g></g></svg>