<svg xmlns="http://www.w3.org/2000/svg" xmlns:xlink="http://www.w3.org/1999/xlink" viewBox="0 0 28.27 28.27"><defs><style>.cls-1{fill:none;}.cls-2{fill:#fff;}.cls-3{clip-path:url(#clip-path);}.cls-4{fill:#221e1b;fill-rule:evenodd;}</style><clipPath id="clip-path"><circle class="cls-1" cx="14.14" cy="14.14" r="13.14"/></clipPath></defs><g id="Layer_2" data-name="Layer 2"><g id="Layer_1-2" data-name="Layer 1"><circle class="cls-2" cx="14.14" cy="14.14" r="13.64"/><path class="cls-2" d="M14.14,1A13.14,13.14,0,1,1,1,14.14,13.13,13.13,0,0,1,14.14,1m0-1A14.14,14.14,0,1,0,28.27,14.14,14.15,14.15,0,0,0,14.14,0Z"/><g class="cls-3"><path class="cls-4" d="M14.13,1A13.27,13.27,0,0,0,9.94,26.85c.67.13.91-.28.91-.64s0-1.14,0-2.25c-3.69.8-4.47-1.78-4.47-1.78a3.51,3.51,0,0,0-1.47-1.94c-1.21-.82.09-.81.09-.81A2.8,2.8,0,0,1,7,20.8a2.82,2.82,0,0,0,3.86,1.1,2.88,2.88,0,0,1,.84-1.77c-2.94-.34-6-1.47-6-6.56A5.13,5.13,0,0,1,7,10,4.75,4.75,0,0,1,7.17,6.5s1.11-.35,3.65,1.36a12.75,12.75,0,0,1,6.64,0C20,6.15,21.1,6.5,21.1,6.5A4.7,4.7,0,0,1,21.23,10a5.13,5.13,0,0,1,1.37,3.56c0,5.1-3.1,6.22-6.06,6.55a3.16,3.16,0,0,1,.9,2.46c0,1.77,0,3.2,0,3.63s.24.77.92.64A13.27,13.27,0,0,0,14.13,1Z"/></g></g></g></svg>