<svg xmlns="http://www.w3.org/2000/svg" xmlns:xlink="http://www.w3.org/1999/xlink" viewBox="0 0 246.33 93.8"><defs><style>.cls-1{fill:none;}.cls-2{isolation:isolate;}.cls-3{clip-path:url(#clip-path);}.cls-4{fill:#ca177e;}.cls-5{clip-path:url(#clip-path-2);}.cls-6{fill:#4cb3e6;}</style><clipPath id="clip-path"><rect class="cls-1" width="246.33" height="42.77"/></clipPath><clipPath id="clip-path-2"><rect class="cls-1" x="28.66" y="60.98" width="189" height="32.82"/></clipPath></defs><g id="Layer_2" data-name="Layer 2"><g id="Layer_1-2" data-name="Layer 1"><g class="cls-2"><g class="cls-3"><path class="cls-4" d="M123.16,37.85c-52.28,0-94.84-7.38-94.84-16.46S70.88,4.92,123.16,4.92,218,12.31,218,21.39s-42.55,16.46-94.85,16.46m0-37.85C55.25,0,0,9.59,0,21.39S55.25,42.77,123.16,42.77s123.17-9.59,123.17-21.38S191.08,0,123.16,0"/></g></g><g class="cls-2"><g class="cls-5"><path class="cls-6" d="M123.16,90.85c-42.73,0-77.49-6-77.49-13.46s34.76-13.46,77.49-13.46,77.5,6,77.5,13.46-34.76,13.46-77.5,13.46m0-29.87c-52.11,0-94.5,7.36-94.5,16.41S71.05,93.8,123.16,93.8s94.5-7.36,94.5-16.41S175.28,61,123.16,61"/></g></g></g></g></svg>