<svg xmlns="http://www.w3.org/2000/svg" viewBox="0 0 39.67 39.67"><defs><style>.cls-1{fill:#300;}.cls-2{fill:#ff9a00;}</style></defs><g id="Layer_2" data-name="Layer 2"><g id="Layer_1-2" data-name="Layer 1"><rect class="cls-1" width="39.67" height="39.67" rx="5.81"/><path class="cls-2" d="M19.34,24.15H13.29l-1.24,4a.37.37,0,0,1-.11.18.36.36,0,0,1-.2.06H8.67c-.18,0-.24-.1-.18-.29l5.22-15.09a5,5,0,0,0,.16-.54,3.45,3.45,0,0,0,.1-.9.17.17,0,0,1,0-.07.16.16,0,0,1,0-.07l.06,0h4.25c.12,0,.19,0,.21.13l6,16.61c.05.17,0,.26-.16.26h-3.4a.25.25,0,0,1-.17,0,.33.33,0,0,1-.1-.14ZM14.2,21.36h4.43c-.1-.35-.46-1.16-.6-1.59s-.33-.79-.49-1.29-.32-1-.47-1.49-.3-1-.43-1.44-.25-.89-.36-1.27h0a18.33,18.33,0,0,1-.55,2.09c-.24.79-.49,1.59-.74,2.42S14.44,20.66,14.2,21.36Z"/><path class="cls-2" d="M28.05,14.16a1.78,1.78,0,0,1-.79-.13,2.06,2.06,0,0,1-.66-.44,2.13,2.13,0,0,1-.42-.69,2.22,2.22,0,0,1-.13-.81,1.94,1.94,0,0,1,.14-.79,2.15,2.15,0,0,1,.45-.66,2.08,2.08,0,0,1,.67-.43,2.12,2.12,0,0,1,.79-.13,1.84,1.84,0,0,1,.8.12,2,2,0,0,1,.68.44,2.07,2.07,0,0,1,.54,1.45,2.22,2.22,0,0,1-.13.81,2.19,2.19,0,0,1-.44.69,2,2,0,0,1-.69.44A1.89,1.89,0,0,1,28.05,14.16Zm-1.7,14v-12q0-.24.21-.24h3q.21,0,.21.24v12c0,.17-.07.26-.21.26h-3C26.43,28.43,26.35,28.34,26.35,28.17Z"/></g></g></svg>