<svg xmlns="http://www.w3.org/2000/svg" xmlns:xlink="http://www.w3.org/1999/xlink" viewBox="0 0 27.41 27.41"><defs><style>.cls-1{fill:none;stroke:#fff;stroke-miterlimit:10;}.cls-2{clip-path:url(#clip-path);}.cls-3{fill:url(#linear-gradient);}.cls-4{fill:#fff;}</style><clipPath id="clip-path"><circle class="cls-1" cx="13.71" cy="13.71" r="13.21"/></clipPath><linearGradient id="linear-gradient" x1="3.46" y1="5.91" x2="24.15" y2="21.65" gradientUnits="userSpaceOnUse"><stop offset="0" stop-color="#5158d9"/><stop offset="1" stop-color="#de2f6e"/></linearGradient></defs><g id="Layer_2" data-name="Layer 2"><g id="Layer_1-2" data-name="Layer 1"><g id="Layer_2-2" data-name="Layer 2"><g id="Layer_1-2-2" data-name="Layer 1-2"><g class="cls-2"><circle class="cls-3" cx="13.71" cy="13.71" r="13"/></g><circle class="cls-1" cx="13.71" cy="13.71" r="13.21"/><path class="cls-4" d="M13.71,7H17a4.72,4.72,0,0,1,1.53.29,2.67,2.67,0,0,1,1.56,1.56,4.94,4.94,0,0,1,.29,1.53v6.66a4.93,4.93,0,0,1-.29,1.52,2.58,2.58,0,0,1-.61,1,2.84,2.84,0,0,1-1,.62,5,5,0,0,1-1.53.28H10.37a5,5,0,0,1-1.53-.28,2.94,2.94,0,0,1-1-.62,2.58,2.58,0,0,1-.61-1A4.8,4.8,0,0,1,7,17V10.37a4.68,4.68,0,0,1,.26-1.53A2.67,2.67,0,0,1,8.84,7.28,4.68,4.68,0,0,1,10.37,7h3.34m0-1.49H10.3a5.88,5.88,0,0,0-2,.37A4.24,4.24,0,0,0,5.9,8.32a6,6,0,0,0-.38,2v6.79a5.86,5.86,0,0,0,.38,2,4.18,4.18,0,0,0,2.42,2.4,6,6,0,0,0,2,.38h6.79a5.86,5.86,0,0,0,2-.38,4.22,4.22,0,0,0,2.42-2.41,5.89,5.89,0,0,0,.37-2V10.3a5.67,5.67,0,0,0-.39-2,4.24,4.24,0,0,0-2.41-2.41,5.91,5.91,0,0,0-2-.38c-.88,0-1.16-.06-3.39-.06Zm0,4a4.24,4.24,0,1,0,4.22,4.25h0a4.22,4.22,0,0,0-4.14-4.3h-.08Zm0,7a2.75,2.75,0,1,1,2.73-2.76v0a2.73,2.73,0,0,1-2.73,2.67Zm5.37-7.14a1,1,0,1,1,0-.07Z"/></g></g></g></g></svg>