<svg xmlns="http://www.w3.org/2000/svg" viewBox="0 0 78.16 17.64"><defs><style>.cls-1{fill:#fff;}</style></defs><g id="Layer_2" data-name="Layer 2"><g id="Layer_1-2" data-name="Layer 1"><path class="cls-1" d="M17.5,8.85a25.64,25.64,0,0,1,0,4.11A4.67,4.67,0,0,1,13,17.49a59.1,59.1,0,0,1-8.31,0A4.68,4.68,0,0,1,.11,12.81a71.35,71.35,0,0,1,0-8A4.72,4.72,0,0,1,4.88.1a73.6,73.6,0,0,1,7.86,0,4.7,4.7,0,0,1,4.75,4.7C17.57,6.15,17.5,7.5,17.5,8.85Zm-15.86,0c0,1,0,2,0,3.07a8.08,8.08,0,0,0,.21,1.9c.46,1.58,1.69,2.08,3.15,2.16a68.09,68.09,0,0,0,7.56,0c2.24-.14,3.31-1.23,3.38-3.48.08-2.4.11-4.8,0-7.19s-1-3.44-3.26-3.57a54.48,54.48,0,0,0-8.08.05,3,3,0,0,0-2.89,3A36.31,36.31,0,0,0,1.64,8.81Z"/><path class="cls-1" d="M23.69,4.3a3.39,3.39,0,0,0-1.12,4.23c.08.15.27.29.15.46s-.36.08-.54,0a1.9,1.9,0,0,1-1.31-2.11,4.46,4.46,0,0,1,2.81-3.44,1.12,1.12,0,0,1,1.67,1.14c0,2.33,0,4.65-.06,7A2.6,2.6,0,0,1,24,14c-.16.09-.36.25-.55.09s0-.32,0-.48a4,4,0,0,0,.24-1.32C23.7,9.64,23.69,7,23.69,4.3Z"/><path class="cls-1" d="M8.83,4.3A4.51,4.51,0,1,1,4.29,8.81,4.49,4.49,0,0,1,8.83,4.3Zm0,1.59a2.93,2.93,0,0,0,0,5.85,2.93,2.93,0,1,0,0-5.85Z"/><path class="cls-1" d="M13.51,5.19a1.11,1.11,0,0,1-1.08-1,1.07,1.07,0,0,1,1-1.08,1,1,0,0,1,1.1,1A1.07,1.07,0,0,1,13.51,5.19Z"/><path class="cls-1" d="M78,10.65c-.24,0-.29.22-.35.41a1.29,1.29,0,0,1-.06.21c-.15.36-.19.88-.71.83s-.54-.52-.62-.91a3.72,3.72,0,0,1-.08-.74c0-.9,0-1.8,0-2.7,0-.74-.46-.86-1-1a.8.8,0,0,0-1.15.48,25.33,25.33,0,0,0-.94,2.65A8.29,8.29,0,0,1,73,7.65c0-.59-.36-.82-.87-1A.8.8,0,0,0,71,7.2c-.22.51-.45,1-.67,1.52a4,4,0,0,1-.17-1.42c0-.74-.58-.54-1-.63s-.49.26-.49.6c0,1,0,2,0,2.92a2.46,2.46,0,0,1-.26,1.23c-.21.36-.38.84-.91.73s-.49-.59-.53-1a28.66,28.66,0,0,1,0-3.59c0-.53-.22-.87-.64-.77A7.09,7.09,0,0,1,64,6.53a1.74,1.74,0,0,0-1.44.67,3.47,3.47,0,0,0-.84,1.73,5.76,5.76,0,0,0,0,2.15.85.85,0,0,1-.62,1.06c-.55.15-.71-.32-.84-.73a3.54,3.54,0,0,1-.08-1.71c.09-.51.23-1,.34-1.53.17-.79-.08-1.09-.89-1-.37,0-.74.12-1.11.17-.17,0-.43.14-.41-.22a.57.57,0,0,0-.52-.69,1,1,0,0,0-1.06.4.94.94,0,0,0-.09,1c.09.17.35.26.28.5a8.21,8.21,0,0,1-1.62,2.91c0-1.29,0-2.38,0-3.48,0-.3.19-.7-.22-.86s-.82-.38-1.19,0c-.17.17-.23.13-.41,0a2,2,0,0,0-3,.9,5.5,5.5,0,0,0-.48,3.07c0,.65-.33,1.31-.76,1.28-.7-.06-.7-.66-.71-1.13,0-1.13,0-2.25,0-3.37,0-.29.13-.65-.26-.78s-.81-.37-1.12,0-.36.07-.52,0a1.94,1.94,0,0,0-2.57.4,4.11,4.11,0,0,0-.91,2.64,2.51,2.51,0,0,1-.49,1.46c-.23.32-.48.73-.94.61s-.46-.57-.5-.93a20.08,20.08,0,0,1,0-3.29C41,6.41,41,6.41,42.37,6.39A1.91,1.91,0,0,0,43,6.32a.52.52,0,0,0,.28-.57c-.06-.35-.39-.24-.61-.26-.48,0-1,.08-1.4-.14s-.08-.89-.15-1.36c-.1-.7-.7-.49-1.1-.6s-.57.15-.59.55.1,1-.13,1.3-.84.06-1.28.08-.45.34-.5.62.22.38.48.38a6.26,6.26,0,0,0,.75,0c.4,0,.59.08.56.54,0,.82,0,1.64,0,2.47a2.5,2.5,0,0,1-.75,1.58c-.14.15-.43.26-.43,0,0-1-.73-1.29-1.34-1.74-.28-.21-.7-.33-.83-.6s.34-.58.46-.92.36-.86-.23-1a1.49,1.49,0,0,0-1.63.51,1.13,1.13,0,0,0-.19,1.44c.13.21.22.37.05.6-.51.74-1,1.49-1.51,2.23-.13.17-.29.39-.55.3s-.23-.37-.23-.58c0-1,0-1.95.05-2.92,0-.5.08-.94-.45-1.22a1.5,1.5,0,0,0-1.75,0,3.82,3.82,0,0,0-1.16,1.54c-.18.38-.34.77-.51,1.15-.1-.82-.07-1.59-.1-2.36s-.62-.54-1-.61-.37.29-.37.56c0,1.45,0,2.9,0,4.35a3.84,3.84,0,0,0,.09.89c.11.5.5.54.93.55s.5-.27.57-.62a10.21,10.21,0,0,1,1.58-3.93,2,2,0,0,1,.64-.67c0,1.29,0,2.53,0,3.77,0,.55.1,1.14.72,1.37a1.44,1.44,0,0,0,1.49-.47,9.43,9.43,0,0,0,1.66-2.11c.78-1.12.89-1.13,1.82-.05.38.43.68.94.23,1.47s-.9.22-1.34-.06c-.24-.15-.47-.31-.74-.07a.9.9,0,0,0-.4.69c0,.34.35.4.6.49a3.67,3.67,0,0,0,4.35-1.45c.11-.16.11-.46.41-.45.17.92.43,1.81,1.48,2s1.61-.65,2.2-1.48A2,2,0,0,0,44.87,13,2.68,2.68,0,0,0,47,11.86,1.65,1.65,0,0,0,48.49,13a2,2,0,0,0,1.59-.93,2,2,0,0,0,1.75.93,2.93,2.93,0,0,0,1.73-.82c.21.47-.14.62-.38.82a11.71,11.71,0,0,0-2.26,2.07,1.47,1.47,0,0,0,1,2.45,2.4,2.4,0,0,0,2.94-1.77A8.2,8.2,0,0,0,55,13c0-.26-.09-.55.13-.78a13.38,13.38,0,0,0,2.51-3.79c.22-.47.74-.29,1.07-.24s0,.42,0,.65a6.45,6.45,0,0,0,0,2.59c.33,1.41,2.11,2.2,3.08.92.16-.21.23-.21.44,0a2.08,2.08,0,0,0,3.16-.12l.34-.39A1.7,1.7,0,0,0,67.08,13c.69.12,1.15-.3,1.66-.85-.07.58.17.76.57.84.87.18,1.13,0,1.15-.9A7,7,0,0,1,71.59,8.2c.07.77.11,1.36.17,1.94a7.47,7.47,0,0,0,.29,1.7,1,1,0,0,0,1.13.66c.53,0,.39-.47.44-.79s.07-.65.15-1a5.32,5.32,0,0,1,.84-2.2,2,2,0,0,1,.11,1,8.49,8.49,0,0,0,.21,2.08A1.76,1.76,0,0,0,76.8,13a1.82,1.82,0,0,0,1.35-1.84C78.15,11,78.21,10.68,78,10.65Zm-31.62.76c-.21.4-.5.77-1,.71s-.68-.48-.78-.89a4.91,4.91,0,0,1,.14-2.79c.18-.52.5-.94,1.14-.87s.76.58.87,1.07c0,.27,0,.54.07.82A4.11,4.11,0,0,1,46.33,11.41Zm6.8,0a1,1,0,0,1-1,.7c-.52,0-.69-.43-.8-.85A4.48,4.48,0,0,1,51.5,8.5c.2-.55.53-1,1.19-.92s.75.63.82,1.16c0,.22,0,.45.06.58A5.1,5.1,0,0,1,53.13,11.43Zm.33,4.69c-.22.71-.81,1-1.35.8s-.57-.73-.2-1.41a7.48,7.48,0,0,1,1.81-1.95A7.71,7.71,0,0,1,53.46,16.12Zm11.48-4.5a1,1,0,0,1-.93.51.86.86,0,0,1-.68-.71,4.82,4.82,0,0,1,.1-3.07,1,1,0,0,1,1.06-.79c.58,0,.78.47.88,1,.07.34.09.69.11.86A4.16,4.16,0,0,1,64.94,11.62Z"/></g></g></svg>