<svg xmlns="http://www.w3.org/2000/svg" viewBox="0 0 64.96 15.84"><defs><style>.cls-1{fill:#fff;}</style></defs><g id="Layer_2" data-name="Layer 2"><g id="Layer_1-2" data-name="Layer 1"><path class="cls-1" d="M63.78,15.84c0-.06-.1,0-.16-.05a1.09,1.09,0,0,1-.81-1.21,1.08,1.08,0,1,1,1.25,1.22s-.08,0-.1,0Zm.1-.15a1,1,0,1,0,0-1.9,1,1,0,1,0,0,1.9Z"/><path class="cls-1" d="M0,13.37H0v-11H0a1.28,1.28,0,0,0,0,.19V13.37Z"/><path class="cls-1" d="M46.35,7.85q0-3.31,0-6.63A1.15,1.15,0,0,1,47.17.05a1.51,1.51,0,0,1,.42,0H60.86a1.16,1.16,0,0,1,1.23,1.24V14.47a1.15,1.15,0,0,1-.87,1.2,1,1,0,0,1-.3,0H47.52a1.14,1.14,0,0,1-1.16-1.19c0-1.15,0-2.31,0-3.46Zm8.39-.93s0-.1,0-.15q0-.37,0-.75c0-.1,0-.13-.13-.13-.66,0-1.31,0-2,0-.1,0-.14,0-.14.14,0,2.4,0,4.81,0,7.21,0,.11,0,.14.14.14.67,0,1.35,0,2,0,.12,0,.16,0,.16-.16,0-1.18,0-2.35,0-3.53,0-.23,0-.45,0-.67A1.24,1.24,0,0,1,56,7.76a1.08,1.08,0,0,1,1.31.91,3.51,3.51,0,0,1,.08.71c0,1.29,0,2.57,0,3.85,0,.11,0,.15.15.15.68,0,1.35,0,2,0,.12,0,.15,0,.15-.15,0-1.39,0-2.77,0-4.15a6.27,6.27,0,0,0-.17-1.56,2.21,2.21,0,0,0-1.52-1.67,4,4,0,0,0-1-.14,2.42,2.42,0,0,0-2,.84C54.93,6.66,54.84,6.79,54.74,6.92Zm-6,2.7c0,1.2,0,2.4,0,3.61,0,.12,0,.15.16.15h2c.11,0,.15,0,.15-.14Q51,9.64,51,6c0-.11,0-.14-.14-.14-.68,0-1.35,0-2,0-.14,0-.16.05-.16.17C48.7,7.24,48.7,8.43,48.7,9.62Zm1.17-7.45a1.35,1.35,0,1,0,1.34,1.35A1.35,1.35,0,0,0,49.87,2.17Z"/><path class="cls-1" d="M41.69,6.65V2.48c0-.12,0-.16.14-.16.69,0,1.38,0,2.06,0,.12,0,.15,0,.15.15q0,5.37,0,10.76c0,.12,0,.15-.16.15-.61,0-1.23,0-1.85,0-.13,0-.16,0-.16-.16,0-.27,0-.54,0-.85a3.85,3.85,0,0,1-.48.5,3,3,0,0,1-2.33.68,3.5,3.5,0,0,1-2.26-1.1,3.66,3.66,0,0,1-.92-1.94,4.61,4.61,0,0,1,.54-3.19,3.12,3.12,0,0,1,2.39-1.64,3.36,3.36,0,0,1,2.39.5A2.36,2.36,0,0,1,41.69,6.65Zm.19,3a2,2,0,0,0-.48-1.4,2,2,0,0,0-2.3-.35,1.65,1.65,0,0,0-.89,1.19,2.08,2.08,0,0,0,.38,1.82,2,2,0,0,0,2.52.3A1.81,1.81,0,0,0,41.88,9.65Z"/><path class="cls-1" d="M22.42,8.93l.83-1L25,6a.18.18,0,0,1,.16-.08h2.71l.05,0-.23.27c-.91,1-1.81,2.05-2.71,3.07-.08.09-.08.14,0,.24q1.39,1.86,2.77,3.73l.12.16a.24.24,0,0,1-.14,0H25.07a.24.24,0,0,1-.23-.12c-.75-1.14-1.51-2.28-2.27-3.41l-.12-.16c-.05.05,0,.11,0,.15v3.38c0,.13,0,.17-.17.16h-2c-.11,0-.14,0-.14-.13V2.47c0-.12,0-.15.14-.15.68,0,1.36,0,2,0,.13,0,.15,0,.15.16V8.93Z"/><path class="cls-1" d="M32.45,10.35H29.9c-.12,0-.15,0-.12.14a1.8,1.8,0,0,0,2.37,1.2,2,2,0,0,0,1-.71c.06-.08.09-.09.17,0L34.71,12c.11.07.06.12,0,.19A4.05,4.05,0,0,1,32,13.55a4.37,4.37,0,0,1-3.11-.84A3.64,3.64,0,0,1,27.44,10a3.87,3.87,0,0,1,.62-2.63A3.92,3.92,0,0,1,30.8,5.72,4,4,0,0,1,33.14,6,3.23,3.23,0,0,1,35,8.12a7,7,0,0,1,.21,2.14c0,.11-.07.09-.13.09H32.45Zm-1.16-1.6H32.7c.1,0,.13,0,.12-.13a1.39,1.39,0,0,0-.52-1,1.6,1.6,0,0,0-2.53,1c0,.11,0,.12.11.12Z"/><path class="cls-1" d="M13.9,6.89a2.76,2.76,0,0,1,.63-.69,2.68,2.68,0,0,1,1.88-.5,3.31,3.31,0,0,1,1.2.3,2.22,2.22,0,0,1,1.13,1.55A5.65,5.65,0,0,1,18.91,9c0,1.39,0,2.79,0,4.19,0,.13,0,.16-.16.16-.68,0-1.36,0-2,0-.12,0-.15,0-.15-.15V9.31a2.72,2.72,0,0,0-.09-.69,1,1,0,0,0-1.12-.87,1.21,1.21,0,0,0-1.11.54A2,2,0,0,0,14,9a5.58,5.58,0,0,0,0,.7c0,1.18,0,2.35,0,3.52,0,.14,0,.16-.17.16h-2c-.11,0-.14,0-.14-.13V6c0-.11,0-.13.13-.13h2c.11,0,.14,0,.13.13v.86Z"/><path class="cls-1" d="M0,13.37V2.51a1.28,1.28,0,0,1,0-.19c.75,0,1.5,0,2.26,0,.13,0,.16,0,.16.16,0,2.82,0,5.64,0,8.46,0,.2,0,.2.19.2H6.79c.14,0,.16,0,.16.16v1.94c0,.11,0,.15-.14.15H.1Z"/><path class="cls-1" d="M10.35,9.62c0,1.2,0,2.39,0,3.59,0,.15,0,.17-.18.17-.67,0-1.35,0-2,0-.11,0-.14,0-.14-.13Q8,9.64,8,6c0-.11,0-.13.14-.13h2c.13,0,.16,0,.16.15C10.34,7.23,10.35,8.42,10.35,9.62Z"/><path class="cls-1" d="M9.17,2.16a1.36,1.36,0,0,1,0,2.71,1.36,1.36,0,1,1,0-2.71Z"/><path class="cls-1" d="M64.05,14.83l.31.49a.18.18,0,0,1-.25-.09c0-.11-.13-.2-.19-.31s-.12-.09-.2-.08,0,.1,0,.15a2.09,2.09,0,0,0,0,.25c0,.07,0,.1-.09.1s-.09,0-.09-.1v-1c0-.06,0-.09.08-.09a3.85,3.85,0,0,1,.48,0c.2,0,.28.11.29.29a.28.28,0,0,1-.25.33Zm-.21-.13H64a.19.19,0,0,0,.17-.19.17.17,0,0,0-.18-.18h-.25l-.06,0a1.14,1.14,0,0,0,0,.32C63.69,14.73,63.79,14.68,63.84,14.7Z"/></g></g></svg>