<svg xmlns="http://www.w3.org/2000/svg" xmlns:xlink="http://www.w3.org/1999/xlink" viewBox="0 0 2056.61 1773.22"><defs><style>.cls-1{fill:none;}.cls-2{fill:#a07253;}.cls-3,.cls-4{fill:#231f20;}.cls-4{opacity:0.4;}.cls-5{fill:#efd18e;}.cls-6{fill:#c1a978;}.cls-14,.cls-7{fill:#fff;}.cls-8{fill:#5e483a;}.cls-9{fill:#2e2f35;}.cls-10{fill:#7cbae1;}.cls-11{fill:#eb6183;}.cls-12{fill:#fbf286;}.cls-13{clip-path:url(#clip-path);}.cls-14{stroke:#231f20;stroke-miterlimit:10;stroke-width:16.06px;}</style><clipPath id="clip-path"><path class="cls-1" d="M425.87,1298.44c68.77,43.22,238.58,137.09,474.78,139.22,241.88,2.19,416.57-93.06,485.48-135.65-64.15,205.71-250,349-460.5,357C700.56,1667.48,493.42,1519.43,425.87,1298.44Z"/></clipPath></defs><g id="Layer_2" data-name="Layer 2"><g id="Layer_1-2" data-name="Layer 1"><path class="cls-2" d="M469.82,445.28c17.05-43.73,70.57-181,7.14-246.31-64.31-66.25-210.87-19.46-292.71,35.69C165.51,247.29,9.39,352.5,41.46,481,69.7,594.12,227,657.69,334.17,616.63,415.1,585.61,447.49,502.55,469.82,445.28Z"/><path class="cls-3" d="M457.22,440.37c5.36-14.17,10.39-28.17,14.87-42.37s8.46-28.45,11.61-42.82A341.33,341.33,0,0,0,490.54,312a211.73,211.73,0,0,0-.12-42.36,138.65,138.65,0,0,0-3.72-20c-.86-3.22-1.87-6.37-3-9.45s-2.4-6.07-3.83-8.94c-.67-1.47-1.48-2.84-2.21-4.27s-1.56-2.77-2.45-4.08a78,78,0,0,0-5.54-7.65,79.44,79.44,0,0,0-13.58-13c-10-7.63-22.21-12.72-35.25-15.93a145.19,145.19,0,0,0-20.2-3.27,185.07,185.07,0,0,0-21-.66,260.62,260.62,0,0,0-42.7,4.78A358.47,358.47,0,0,0,294.54,198a433.72,433.72,0,0,0-41.27,15.5,427.48,427.48,0,0,0-39.62,19.46c-6.41,3.59-12.73,7.33-18.87,11.27s-12.32,8.11-18.33,12.4c-12,8.59-23.68,17.78-34.86,27.46-22.29,19.41-42.83,40.89-59.47,64.87A219.65,219.65,0,0,0,60.84,386.7a161.47,161.47,0,0,0-11.93,41,132.66,132.66,0,0,0,.5,42.23A142.92,142.92,0,0,0,63,510.17,162.85,162.85,0,0,0,87.53,545.5a204.34,204.34,0,0,0,32.56,28.91c23.73,17.08,51,29.43,79.31,37.06a250.2,250.2,0,0,0,43.31,7.43,216.52,216.52,0,0,0,43.66-.87,178.17,178.17,0,0,0,41.88-10.27c.84-.32,1.69-.6,2.52-.93l2.46-1.06c1.63-.72,3.3-1.37,4.91-2.14L343,601.3c.8-.38,1.59-.8,2.37-1.23l2.34-1.29c1.57-.85,3.14-1.69,4.64-2.65l4.56-2.78c2.95-2,5.94-3.92,8.76-6.1,1.44-1,2.88-2.1,4.25-3.25s2.79-2.22,4.15-3.37l4-3.53c1.36-1.16,2.61-2.44,3.92-3.66a183.6,183.6,0,0,0,14.65-15.74c4.58-5.55,8.95-11.31,13-17.32s7.92-12.19,11.55-18.52a402.35,402.35,0,0,0,19.48-39.64C446.54,468.58,451.87,454.6,457.22,440.37Zm25.2,9.82c-5.68,14.12-11.51,28.45-18,42.61a402.82,402.82,0,0,1-21.88,41.66q-6.19,10.13-13.16,19.83c-4.67,6.45-9.7,12.68-15,18.69a204.68,204.68,0,0,1-17,17.13c-1.52,1.33-3,2.72-4.55,4L388.18,598c-1.58,1.25-3.21,2.45-4.82,3.67s-3.26,2.39-4.93,3.53c-3.28,2.36-6.75,4.46-10.17,6.61l-5.28,3c-1.74,1-3.55,1.93-5.36,2.84L354.91,619c-.89.46-1.8.91-2.73,1.31l-5.53,2.49c-1.84.82-3.74,1.51-5.61,2.27l-2.82,1.11c-.94.36-1.9.65-2.86,1a205.17,205.17,0,0,1-46.8,10.27,245.06,245.06,0,0,1-47.45.1,269.06,269.06,0,0,1-46.43-8.46,272,272,0,0,1-85.29-39.59,223.26,223.26,0,0,1-35.8-31.26,190.36,190.36,0,0,1-27.83-39.07,163,163,0,0,1-16.2-45.63A158.06,158.06,0,0,1,28,424.87a183.14,183.14,0,0,1,12.41-46.72,250.64,250.64,0,0,1,22.37-42.21C80.2,309.4,101.46,286,124.47,264.86q17.31-15.83,36-30,9.38-7.08,19.12-13.69c6.54-4.44,13.21-8.64,20-12.66a451.35,451.35,0,0,1,85.52-39.31c29.83-10.06,61-17.3,93.6-18.52a220.29,220.29,0,0,1,24.61.48,179.4,179.4,0,0,1,24.86,3.72,137.11,137.11,0,0,1,24.51,8,116.21,116.21,0,0,1,22.87,13.24c1.81,1.3,3.52,2.74,5.26,4.15.86.7,1.68,1.47,2.51,2.21s1.68,1.47,2.47,2.27c1.6,1.56,3.19,3.13,4.68,4.8s3,3.35,4.4,5.06a112.51,112.51,0,0,1,7.76,10.87c1.23,1.86,2.27,3.81,3.39,5.72s2.1,3.89,3,5.88a129.44,129.44,0,0,1,8.73,24.43,163,163,0,0,1,4.2,24.86,235.6,235.6,0,0,1-1,48.75,373.31,373.31,0,0,1-8.75,46.71c-3.81,15.26-8.34,30.22-13.39,44.93S488.17,436,482.42,450.19Z"/><path class="cls-4" d="M469.82,445.28c17.05-43.73,70.57-181,7.14-246.31-24-24.76-59.55-33.72-98.89-32.37-7.45,55.27-26.8,122.47-72.45,187.06C235.24,453.21,136.51,498.27,56.44,518.52c40.49,72.9,137.47,116.51,223.26,110l179-155.23C462.71,463.51,466.39,454.09,469.82,445.28Z"/><path class="cls-5" d="M286.58,577.36c-73.25,7.35-137.82-44.3-152.31-101.14C109.79,380.16,226.92,263.84,318.7,287c57.57,14.54,105.35,84,97.58,157.07C409.25,510.13,357.79,570.22,286.58,577.36Z"/><path class="cls-6" d="M340,295.09a405.11,405.11,0,0,1-34.39,58.57c-47.51,67.21-108,109.56-166.84,136.22,20.52,51.15,80.48,94.23,147.8,87.48,71.21-7.14,122.67-67.23,129.7-133.27C423.07,380.27,387.48,319.22,340,295.09Z"/><path class="cls-2" d="M1420.05,673.29c11.52-100.82,243.76-204.21,420.55-133.41,105.61,42.29,220.23,158.29,192.76,257-27.26,98-181.29,131.63-275.54,126.46-90-4.94-154.2-46.89-190.3-71.13C1522.57,822.05,1411.56,747.53,1420.05,673.29Z"/><path class="cls-3" d="M1409.67,672.1a94.75,94.75,0,0,1,7.22-27.27,130.09,130.09,0,0,1,13.57-23.78,186.41,186.41,0,0,1,17.2-20.55,229.59,229.59,0,0,1,19.41-18c27.18-22.2,57.64-39.47,89.62-52.86a445.24,445.24,0,0,1,100-28.58c8.62-1.35,17.29-2.43,26-3.31s17.45-1.43,26.22-1.72c2.19-.12,4.39-.12,6.58-.15s4.39-.07,6.59,0l6.6.08,6.59.21,3.3.12,3.3.19c2.2.14,4.41.24,6.61.41,4.39.36,8.8.68,13.19,1.2s8.79,1,13.18,1.62c2.19.3,4.38.68,6.57,1l3.28.55,3.27.62c8.73,1.58,17.4,3.65,26,5.91s17.11,5.1,25.54,8.09l6.28,2.38,3.14,1.2,3.1,1.28c4.13,1.71,8.2,3.53,12.25,5.39a390.06,390.06,0,0,1,46.41,25.67,412.5,412.5,0,0,1,42.47,31.31c26.78,22.8,51.08,48.91,70.48,79.3a257.29,257.29,0,0,1,13.25,23.75,208.94,208.94,0,0,1,10.56,25.5,174.1,174.1,0,0,1,7,27.25,145.56,145.56,0,0,1,2.12,28.61,134.67,134.67,0,0,1-3.88,28.82,130.93,130.93,0,0,1-10.17,27.25,140.73,140.73,0,0,1-7.2,12.53c-2.65,4-5.39,7.9-8.39,11.56A160.25,160.25,0,0,1,2007.5,868a202.82,202.82,0,0,1-21.84,16.51,248.36,248.36,0,0,1-23.28,13.38,315.11,315.11,0,0,1-48.89,19.47A412,412,0,0,1,1863,929.38a485.63,485.63,0,0,1-51.21,6.15,412,412,0,0,1-51.65.21,371.56,371.56,0,0,1-51.4-7.2,352.59,352.59,0,0,1-49.5-15,390.83,390.83,0,0,1-46.65-21.71c-15-8.18-29.46-17.28-43.45-26.73s-27.74-18.87-41.4-28.85-27-20.45-39.9-31.5A371.63,371.63,0,0,1,1451,769.06c-11.37-13-22.09-26.93-30.14-43a115.93,115.93,0,0,1-9.36-25.71A87.85,87.85,0,0,1,1409.67,672.1Zm20.75,2.37a66.8,66.8,0,0,0,1.23,21.5,95.48,95.48,0,0,0,7.5,21.2c6.74,13.81,16.2,26.72,26.78,38.75a352.83,352.83,0,0,0,34.79,33.89c12.39,10.63,25.39,20.67,38.73,30.33s27.09,18.9,40.91,28.11,27.64,17.67,42,25.32a360,360,0,0,0,44.32,20,310.21,310.21,0,0,0,94.52,19.49,386.63,386.63,0,0,0,48.7-1,438.77,438.77,0,0,0,48.41-6.7,386.7,386.7,0,0,0,47.15-12.26A290.24,290.24,0,0,0,1950,874.38a222.23,222.23,0,0,0,20.45-12.28,174.32,174.32,0,0,0,18.53-14.55c11.51-10.51,21.3-22.68,27.87-36.36a102.5,102.5,0,0,0,7.58-21.34,105.93,105.93,0,0,0,2.64-22.56v-2.86l-.1-2.87c0-1.91-.24-3.82-.36-5.73-.39-3.82-.86-7.64-1.59-11.45a145.39,145.39,0,0,0-6.09-22.54,179,179,0,0,0-9.37-21.74,225.35,225.35,0,0,0-12-20.72c-17.49-26.88-40-50.78-64.91-71.58a375.26,375.26,0,0,0-81.9-52.18c-29.28-13.57-60.8-22-93-26a386.37,386.37,0,0,0-97.23.79A423,423,0,0,0,1566,554.24c-7.59,2.91-15.1,6-22.5,9.36s-14.65,7-21.77,10.82a286.61,286.61,0,0,0-40.46,26.25c-12.55,9.86-24.1,20.93-33.29,33.36a107.75,107.75,0,0,0-11.63,19.53A73.41,73.41,0,0,0,1430.42,674.47Z"/><path class="cls-4" d="M1611.39,591.56c71.23,102.69,119.27,216.8,146.42,331.8h0c168.37-2.23,201.82-42.36,201.82-42.36,35.28-42.35,19.35-108.29,17-117.94C1948.3,645.72,1799,604.51,1774,597.59,1707.89,579.35,1649.45,584.47,1611.39,591.56Z"/><path class="cls-6" d="M1668.36,673.74c9.4-24.08,93.09-21.62,155.58,2.38,37.19,14.28,116.4,55.86,113,102.33-3.69,51.15-91.74,78.08-99.6,80.48s-69.26,20.33-112.45-1.78c-55.48-28.4-56.57-110.37-57.46-178A13.66,13.66,0,0,1,1668.36,673.74Z"/><path class="cls-2" d="M1088.55,232.2c8.26-26.74,21.92-75.76,16.83-92.73-7.14-23.8-51.82-39.27-51.82-39.27s13.75,10.71,23.27,30.94c4.83,10.27-7.81,34.63-21.44,56.14-9.83-54.68-62.34-127-112-159.06-75.56-48.79-189-.6-189-.6L844.79,53.8c61.17,17.7,85.3,98.51,94.52,149-21.7-13.91-49.55-33.46-55.22-45.47-9.55-20.23-11.31-63.06-11.31-63.06s-29.26,57.24-20.4,81.21c5.67,15.32,18,30.53,27.07,37.07C447,196,11,743.07,11,1134.09c0,401.45,509.28,625.59,910.73,625.59s863.42-202.73,863.42-604.17C1785.11,792.61,1581.28,361.84,1088.55,232.2Z"/><path class="cls-3" d="M1081.53,236.1a11.62,11.62,0,0,1-.72-3.51,10.89,10.89,0,0,1,.44-3.66l.1-.35,0-.07,0-.15.11-.29.22-.59.88-2.35,1.71-4.72c1.14-3.15,2.22-6.31,3.28-9.48q3.19-9.51,6-19.13c1.83-6.41,3.55-12.84,5-19.31a152.61,152.61,0,0,0,3.17-19.35,51.7,51.7,0,0,0,.09-9.29c-.07-.73-.16-1.44-.29-2.1-.06-.34-.14-.66-.22-1l-.29-1a23.12,23.12,0,0,0-1.71-3.95c-2.81-5.19-7.38-9.79-12.43-13.74a103.57,103.57,0,0,0-16.56-10.36c-2.93-1.5-5.93-2.87-9-4.17s-6.17-2.48-9.16-3.42h0l3.92-7.21c.56.43,1,.75,1.42,1.12l1.29,1.08c.85.72,1.67,1.47,2.48,2.22,1.61,1.51,3.18,3.06,4.66,4.68a102.37,102.37,0,0,1,8.34,10.24,97.15,97.15,0,0,1,7,11.27l.39.73c.14.25.25.45.45.89a14.62,14.62,0,0,1,.85,2.3,19.62,19.62,0,0,1,.72,4.36,33.64,33.64,0,0,1-.5,7.65,75.31,75.31,0,0,1-3.76,13.23c-1.55,4.17-3.3,8.18-5.15,12.11-3.71,7.84-7.82,15.38-12.12,22.77h0l-11.07,17.32-3.62-20.2c-2.71-15.13-8.31-30.12-15.2-44.46a294.48,294.48,0,0,0-24.5-41.28A318.07,318.07,0,0,0,977.16,65.8a226.73,226.73,0,0,0-36.29-31,125.38,125.38,0,0,0-42.94-18,185.91,185.91,0,0,0-47.36-3.91,276.2,276.2,0,0,0-47.77,6.23q-11.82,2.55-23.46,6c-3.86,1.15-7.71,2.36-11.53,3.66-1.9.65-3.8,1.31-5.69,2s-3.8,1.41-5.51,2.11h0L756,22.11c22.6,5.66,45.1,11.67,67.59,17.75l16.85,4.6,4.21,1.15,2.1.59,2.27.66a89.55,89.55,0,0,1,9,3.22A102.07,102.07,0,0,1,889.3,71a144.83,144.83,0,0,1,22.88,29,216.22,216.22,0,0,1,16.11,32.49c8.92,22.34,14.82,45.51,18.92,68.86l3.23,18.34L935,209.55c-9.62-6.31-19.09-12.88-28.26-20-4.59-3.58-9.1-7.31-13.46-11.36-2.18-2-4.33-4.11-6.42-6.37a61,61,0,0,1-6-7.51l-.7-1.09-.67-1.17c-.22-.38-.43-.82-.64-1.25s-.42-.89-.54-1.23c-.62-1.49-1.14-3-1.63-4.44a86.45,86.45,0,0,1-2.33-8.78,157.76,157.76,0,0,1-2.64-17.4q-.84-8.67-1-17.3c-.15-5.76-.11-11.49.19-17.27h0l3.62.8a300.34,300.34,0,0,0-11.37,30.58c-1.59,5.18-3,10.39-4.18,15.61a112.74,112.74,0,0,0-2.46,15.6c-.39,5.09-.26,10.23,1,14.34a14.5,14.5,0,0,0,.5,1.45l.3.71.38.85.77,1.7.84,1.68c.55,1.13,1.21,2.22,1.8,3.33s1.28,2.19,2,3.25a91.23,91.23,0,0,0,9.3,12.12,69.89,69.89,0,0,0,5.3,5.31,45.72,45.72,0,0,0,5.52,4.36h0l20,15.43-25-.9c-51.32-1.85-102.83,4.48-152.65,17.25s-98.07,31.89-144,55.43C559.57,305,537.2,318,515.4,331.81s-43,28.65-63.61,44.26A1088.33,1088.33,0,0,0,335.35,478.45Q308,506,282.6,535.4t-49,60.22A1214.5,1214.5,0,0,0,147.57,724.7q-19.4,33.59-36.47,68.43c-11.35,23.21-21.91,46.8-31.49,70.77C60.47,911.83,45,961.22,34.77,1011.62a659.11,659.11,0,0,0-11,76.16A509.3,509.3,0,0,0,23,1164.3a441.19,441.19,0,0,0,11.75,75.31,446.43,446.43,0,0,0,24.64,72.12,480.72,480.72,0,0,0,36.33,67.14,540.92,540.92,0,0,0,46.12,61.1c33.53,38.64,72.17,72.88,113.66,103.15s86,56.62,132.17,79.53a1130.48,1130.48,0,0,0,143.05,58.79,1259.76,1259.76,0,0,0,149.57,40,1249.8,1249.8,0,0,0,153.27,21.41q38.58,2.94,77.25,3.29t77.33-2a1229.78,1229.78,0,0,0,153.53-18.62,1174.27,1174.27,0,0,0,149.75-37.94A1008.85,1008.85,0,0,0,1434,1629.13c45.73-23.18,89.56-50.06,129.77-81.41s76.94-67,107.66-107.17,55.49-84.7,72-132.25a454.28,454.28,0,0,0,18.77-73,479,479,0,0,0,6.68-75.3l.05-4.74v-4.81c0-3.21,0-6.41-.07-9.62-.08-6.41-.24-12.82-.43-19.23q-.65-19.24-2-38.44-2.74-38.42-8.48-76.54a1010.58,1010.58,0,0,0-34.23-150.12c-30.39-98.13-76-191.72-136.13-275.08a872.35,872.35,0,0,0-220.25-213.78q-32-21.63-65.84-40.43c-22.52-12.55-45.64-24-69.15-34.7s-47.5-20.28-71.83-29q-18.24-6.59-36.75-12.43c-3.07-1-6.17-1.94-9.26-2.88s-6.18-1.9-9.29-2.81l-4.65-1.37-2.33-.69-1.6-.47-1.78-.56A68.17,68.17,0,0,1,1081.53,236.1Zm14-7.8c2.47-.56,4.1-1.22,5.62-1.07.2,0,.39,0,.59.08a5.37,5.37,0,0,1,.76.17l2.38.63,4.76,1.28c3.18.83,6.34,1.72,9.51,2.61s6.33,1.76,9.48,2.7q19,5.48,37.68,11.72,37.45,12.51,73.87,28a915.86,915.86,0,0,1,139.62,74.25,885.7,885.7,0,0,1,229.75,216.63q23.61,31.92,44.45,65.8t38.71,69.33a994.48,994.48,0,0,1,60,146.92,1034.11,1034.11,0,0,1,36.41,154.49q6.11,39.25,9.17,78.92,1.53,19.82,2.3,39.69.36,9.93.55,19.88c0,3.31.11,6.62.13,9.94l0,5,0,5a509.9,509.9,0,0,1-6.85,80.45,486.35,486.35,0,0,1-20,78.4c-17.76,51-44.26,98.86-77.1,141.41a581.51,581.51,0,0,1-53.49,60.06,657,657,0,0,1-60.54,52.5,765.74,765.74,0,0,1-65.83,45.21q-34,20.89-69.72,38.5a1040,1040,0,0,1-147.29,59,1218,1218,0,0,1-153.74,37.69,1287.56,1287.56,0,0,1-157.1,18.07q-39.51,2.09-79.11,1.62t-79.06-3.7a1277.26,1277.26,0,0,1-156.42-22.51,1286.18,1286.18,0,0,1-152.45-41.44,1154.79,1154.79,0,0,1-146-60.72c-47.17-23.66-92.69-50.86-135.35-82.23s-82.43-66.93-117.15-107.26a566.06,566.06,0,0,1-47.81-63.91,504.11,504.11,0,0,1-37.77-70.52A469.1,469.1,0,0,1,13,1244.94a463.77,463.77,0,0,1-12-79.17c-.87-13.32-1.14-26.71-.91-40S1,1099.18,2.16,1086a680.45,680.45,0,0,1,11.64-78.61C24.51,955.49,40.62,905,60.38,856.16c9.88-24.44,20.75-48.45,32.41-72s24.17-46.77,37.42-69.49a1236.63,1236.63,0,0,1,88-130.81q24-31.26,50-61t53.83-57.62A1105.85,1105.85,0,0,1,440.91,361.64q31.57-23.7,65-44.82c22.29-14,45.17-27.15,68.69-39.07,47-23.86,96.45-43.29,147.77-56.16s104.38-19.22,157.37-17.08l-5,14.53h0a62.29,62.29,0,0,1-6.93-6.41,88.09,88.09,0,0,1-5.81-6.82,105.52,105.52,0,0,1-9.6-14.8c-.71-1.28-1.33-2.63-2-3.94s-1.26-2.68-1.81-4.08l-.84-2.07L847,178.8l-.37-1.06c-.13-.37-.26-.83-.38-1.24-.23-.85-.44-1.69-.58-2.51a40.57,40.57,0,0,1-.57-9.54,67,67,0,0,1,1-8.88,122.06,122.06,0,0,1,4.34-16.6c1.77-5.36,3.79-10.57,5.95-15.71a308.44,308.44,0,0,1,14.67-29.88l3.69-6.59-.07,7.39h0c1.74,11.18,3.66,22.37,6.13,33.26,1.24,5.44,2.63,10.83,4.3,16,.85,2.57,1.75,5.1,2.78,7.48.52,1.19,1.06,2.34,1.63,3.44a6,6,0,0,0,.39.68c.12.2.23.4.39.62l.44.64.51.67a49,49,0,0,0,5.11,5.42c1.92,1.78,4,3.54,6.06,5.25,4.22,3.41,8.67,6.69,13.2,9.9,9.08,6.41,18.51,12.51,28,18.49l-12.24,8.21c-2.14-11.22-4.73-22.35-7.83-33.29a307,307,0,0,0-10.9-32.16,212.42,212.42,0,0,0-14.87-30,133.56,133.56,0,0,0-20-25.88,88.29,88.29,0,0,0-26.1-18.14,72.76,72.76,0,0,0-7.39-2.86l-1.91-.61-2.09-.63-4.18-1.27-16.7-5.12c-22.26-6.87-44.49-13.81-66.63-21.09L737.22,28l14.9-5.68h0c2.08-.88,4-1.61,6-2.37S762,18.5,764,17.8q5.93-2.09,11.93-3.93,12-3.7,24.24-6.51A288.28,288.28,0,0,1,850,.28,199.22,199.22,0,0,1,900.74,3.9c4.19.87,8.36,1.94,12.48,3.18s8.2,2.64,12.21,4.25a126.72,126.72,0,0,1,11.8,5.41,120.5,120.5,0,0,1,11.23,6.55,240.63,240.63,0,0,1,39,32.48,332.52,332.52,0,0,1,32.5,38.51,310,310,0,0,1,26.27,43.15,225.82,225.82,0,0,1,10.11,23.44,161.34,161.34,0,0,1,7,25L1048.61,183h0c4.66-6.77,9.13-13.65,13.14-20.68,2-3.51,3.89-7.07,5.54-10.64a62.81,62.81,0,0,0,4-10.65,22.09,22.09,0,0,0,.75-4.82,9.38,9.38,0,0,0-.11-1.86,4.06,4.06,0,0,0-.17-.67,3.11,3.11,0,0,0-.22-.54l-.3-.67a86.38,86.38,0,0,0-5.46-10.55,91.55,91.55,0,0,0-6.8-9.8c-1.23-1.57-2.54-3.08-3.87-4.55-.67-.73-1.35-1.44-2-2.14l-1-1-1-.91-16.25-15,20.16,7.8h0c3.35,1.32,6.44,2.67,9.6,4.13s6.23,3,9.29,4.58a129.41,129.41,0,0,1,17.73,11,73.89,73.89,0,0,1,8.08,7,45.93,45.93,0,0,1,6.86,8.72A31.49,31.49,0,0,1,1109,137l.48,1.41c.15.49.3,1,.42,1.48.24,1,.42,1.93.56,2.88a62.45,62.45,0,0,1,.5,10.92,178.5,178.5,0,0,1-2.1,20.74q-1.56,10.22-3.62,20.24c-1.35,6.71-2.82,13.37-4.33,20l-2.32,10-1.19,5-.59,2.49-.15.62-.08.31,0,.15,0,.08s0,0,0-.06l0-.13a5.31,5.31,0,0,0,.06-2.46A5.48,5.48,0,0,0,1095.57,228.3Z"/><path class="cls-5" d="M1608.57,1073.55c9.47-208.46-67.38-357.11-82.11-385.53-38.5-74.31-134.59-259.77-274.87-267.73-151.92-8.62-229.43,199.28-339.12,167.78-97.11-27.89-69.71-195.39-167.78-235.6-129-52.92-386.25,151-481.91,396.24-28,71.88-94.09,234.81-57.12,439.07,10.3,56.9,33.67,178.15,123.75,291.53,196.6,247.44,536.09,237.35,595,235.6,75.48-2.24,376.95-11.2,556.88-245.12C1597.43,1318.75,1605.14,1149.05,1608.57,1073.55Z"/><path class="cls-3" d="M1603.22,1073.31a783.24,783.24,0,0,0-39.83-284c-7.67-22.77-16.36-45.2-26.24-67.07-4.93-10.95-10.17-21.7-15.74-32.38s-11.14-21.43-16.87-32c-11.45-21.2-23.47-42.06-36.39-62.34a666.88,666.88,0,0,0-41.7-58.66,434.17,434.17,0,0,0-49-52.26c-17.78-15.82-37.16-29.9-58.34-40.35s-44.05-17.23-67.45-18.59a157.72,157.72,0,0,0-17.53,0c-2.93.1-5.83.43-8.74.7-1.46.12-2.9.38-4.35.56s-2.9.37-4.34.66l-4.32.77c-1.43.27-2.86.63-4.29.93-2.87.58-5.68,1.42-8.52,2.14-5.62,1.66-11.21,3.45-16.67,5.66-21.91,8.64-42.23,21.32-61.25,35.72s-37,30.48-54.94,46.68c-9,8.1-18,16.25-27.2,24.21s-18.66,15.76-28.63,23q-7.45,5.46-15.39,10.36a166,166,0,0,1-16.45,9c-11.36,5.33-23.7,9.26-36.56,10.35a89.93,89.93,0,0,1-55.21-13.82,92.75,92.75,0,0,1-15-12c-9.14-9-16.36-19.48-22.36-30.37a277.33,277.33,0,0,1-15.29-33.68c-8.81-22.83-15.87-46-24.77-68.15a254.39,254.39,0,0,0-15.21-32.1,133,133,0,0,0-20.81-27.86,94.61,94.61,0,0,0-28-19.55c-1.32-.55-2.6-1.19-4-1.68l-4-1.51-1-.37-1-.32-2.06-.62c-1.38-.4-2.73-.9-4.15-1.19l-4.2-1c-1.4-.34-2.84-.53-4.26-.8-2.83-.59-5.72-.85-8.59-1.22a153.88,153.88,0,0,0-35,.75A218.69,218.69,0,0,0,643,358.44c-22.71,6.85-44.59,16.68-65.55,28.13q-15.74,8.61-30.82,18.39t-29.52,20.52c-38.54,28.59-73.89,61.5-106.09,97.17a803.49,803.49,0,0,0-86.51,115.14c-6.29,10.23-12.43,20.56-18.2,31.09S294.94,690,289.7,700.82c-2.68,5.37-5.16,10.84-7.72,16.27s-4.93,10.94-7.23,16.48-4.57,11.09-6.81,16.65l-6.59,16.89c-8.73,22.5-16.94,45.13-24.18,68.07s-13.56,46.16-18.88,69.59a736.28,736.28,0,0,0-18,142.77,691.13,691.13,0,0,0,1.93,72,706.81,706.81,0,0,0,9.43,71.39c4.3,23.73,9.31,47.23,15.61,70.4a658.9,658.9,0,0,0,22.53,68.34,577,577,0,0,0,68.46,126.08c3.57,4.81,7.05,9.68,10.77,14.38,1.85,2.35,3.64,4.76,5.54,7.08l5.68,7,2.85,3.47L346,1491l5.87,6.81,6,6.65c2,2.21,4,4.45,6.11,6.59a544.31,544.31,0,0,0,52.66,48.85c37.15,30.3,78.32,55.59,121.68,76.12s89,36.29,135.67,47.91a888.28,888.28,0,0,0,142.28,23q36,2.94,72.09,3.1c12,.06,24-.15,36.11-.53s24.1-.79,36.12-1.48a920.2,920.2,0,0,0,142.92-19q35.25-7.65,69.71-18.35c11.47-3.57,22.83-7.46,34.11-11.59s22.46-8.52,33.49-13.25a620.14,620.14,0,0,0,125-70.74A556.62,556.62,0,0,0,1469.51,1476a568.39,568.39,0,0,0,41.27-58.8,576.6,576.6,0,0,0,33.51-63.57,642.84,642.84,0,0,0,43.25-137c2.3-11.79,4.42-23.61,6.17-35.5s3.28-23.81,4.54-35.76C1600.75,1121.47,1602.17,1097.46,1603.22,1073.31Zm17.06.77c-.94,24.22-2.27,48.73-4.71,73.13q-1.85,18.3-4.47,36.55c-1.74,12.17-3.86,24.29-6.15,36.37-1.25,6-2.4,12.08-3.79,18.08-.68,3-1.33,6-2,9l-2.19,9c-.71,3-1.51,6-2.31,9l-2.38,8.93-2.58,8.89-1.28,4.44-1.38,4.42a637.27,637.27,0,0,1-25.9,69.38,596.45,596.45,0,0,1-34.21,65.86,585.89,585.89,0,0,1-42.33,61.08c-7.77,9.66-15.72,19.2-24.11,28.34-4.11,4.65-8.45,9.08-12.71,13.6-2.16,2.22-4.37,4.4-6.55,6.61l-3.28,3.3-3.36,3.22c-8.87,8.69-18.17,16.92-27.59,25s-19.23,15.7-29.15,23.15-20.16,14.45-30.53,21.27-21,13.2-31.74,19.35-21.73,11.9-32.82,17.42-22.34,10.66-33.69,15.56c-45.45,19.6-92.87,34.12-141,44.63q-36.11,7.88-72.76,12.59t-73.43,6.76c-12.25.68-24.54,1.11-36.67,1.44s-24.54.49-36.82.38q-36.89-.33-73.65-3.47c-24.49-2.11-48.9-5.11-73.16-9.14s-48.35-9.12-72.19-15.27c-11.92-3.07-23.78-6.36-35.55-10s-23.49-7.43-35.07-11.64-23.11-8.59-34.46-13.42-22.62-9.81-33.7-15.24c-44.38-21.53-86.55-47.95-124.47-79.61a560.32,560.32,0,0,1-53.7-50.9c-2.14-2.23-4.16-4.55-6.22-6.85L340,1508.3l-6-7.07-3-3.53-2.89-3.6-5.78-7.22c-1.92-2.41-3.74-4.9-5.61-7.34-3.78-4.87-7.31-9.92-10.93-14.9a591.09,591.09,0,0,1-68.86-130,672.19,672.19,0,0,1-22.27-70c-3.08-11.84-5.84-23.74-8.39-35.68s-4.77-23.93-6.86-35.89-4-24.1-5.45-36.22c-.87-6.05-1.4-12.14-2-18.21s-1.09-12.16-1.56-18.25-.77-12.19-1.07-18.29-.45-12.2-.59-18.3-.15-12.2-.16-18.3.19-12.2.31-18.3c1.38-48.8,8.07-97.34,18.9-144.83Q216,866.81,227.1,832c7.37-23.19,15.72-46,24.54-68.65l6.6-16.92c2.28-5.65,4.5-11.33,6.92-16.93s4.87-11.17,7.34-16.74,5.11-11.07,7.84-16.52c5.31-11,11-21.75,16.88-32.41s12.09-21.15,18.43-31.54A820.65,820.65,0,0,1,403,515.38q12.19-13.59,25-26.68t26.21-25.49a696.33,696.33,0,0,1,56.12-47q14.67-11,30-21.08t31.47-19c21.48-11.86,44-22.15,67.73-29.44A230.08,230.08,0,0,1,676,338.52a165.07,165.07,0,0,1,37.86-.94c3.18.39,6.36.68,9.51,1.31,1.58.29,3.17.5,4.73.88l4.7,1.11c1.58.32,3.11.86,4.66,1.3l2.32.7,1.16.35,1.14.42,4.56,1.69c1.52.55,3,1.26,4.48,1.89a107.48,107.48,0,0,1,31.88,22,145.69,145.69,0,0,1,23,30.48,268.7,268.7,0,0,1,16.13,33.67c9.27,22.85,16.44,46.05,25.11,68.2a261,261,0,0,0,14.65,32c5.59,10.09,12.14,19.46,20,27.17a75.89,75.89,0,0,0,27.42,17.38,74.48,74.48,0,0,0,32,4.37c10.83-1,21.53-4.33,31.77-9.16a151.46,151.46,0,0,0,15-8.28q7.37-4.56,14.47-9.79c9.46-6.93,18.61-14.52,27.64-22.35s17.93-15.95,26.89-24.08c17.92-16.27,36.1-32.68,55.79-47.63s41-28.45,64.6-37.84c5.87-2.38,11.94-4.35,18-6.17,3.09-.8,6.15-1.7,9.28-2.35,1.57-.34,3.12-.73,4.69-1l4.72-.86c1.57-.31,3.16-.5,4.74-.73s3.17-.48,4.77-.63c3.18-.3,6.37-.67,9.57-.79a173.39,173.39,0,0,1,19.21,0,184.57,184.57,0,0,1,19.06,2.14,182,182,0,0,1,18.68,4.16l2.31.63,2.28.7c1.52.48,3,.93,4.56,1.43,3,1.06,6,2.06,9,3.24,5.94,2.25,11.72,4.85,17.4,7.63,22.74,11.15,43.2,26,61.82,42.46a448.51,448.51,0,0,1,50.86,54c30.92,38.41,56.68,80.31,80,123.13,5.82,10.71,11.49,21.49,17.08,32.23s11.14,21.93,16.21,33.1c10.18,22.39,19.12,45.28,27,68.51a799.7,799.7,0,0,1,41.46,289.92Z"/><path class="cls-7" d="M716.13,461.44c-105-52.67-388.69,157-421.22,414.09-11.87,93.76,2.45,252.79,96.38,292.72,97.8,41.57,222.06-73.66,242.74-92.82C766.62,952.59,771.41,777,773.25,709.44,775.74,618.05,779.15,493,716.13,461.44Z"/><path class="cls-3" d="M713.14,467.41a74.49,74.49,0,0,0-26.32-7.12,123.42,123.42,0,0,0-28.3,1c-19,2.74-37.65,8.85-55.61,16.48-9,3.81-17.83,8.1-26.49,12.72s-17.2,9.5-25.52,14.76a498,498,0,0,0-48.13,34.3,589.42,589.42,0,0,0-44.26,39.35q-21.09,20.8-40.2,43.53a579.41,579.41,0,0,0-66.47,97.87A510.34,510.34,0,0,0,327,774a458.39,458.39,0,0,0-18,56.26,415.11,415.11,0,0,0-10,58.14,492.06,492.06,0,0,0-2.07,59.12,473.8,473.8,0,0,0,5,58.92,353.8,353.8,0,0,0,13.27,57.37c6.06,18.6,14.05,36.59,24.74,52.7s24.2,30.2,40.52,39.91a111.36,111.36,0,0,0,12.66,6.42,112.49,112.49,0,0,0,13.38,4.63,117.33,117.33,0,0,0,13.91,2.81,127.06,127.06,0,0,0,14.21,1c19.07.25,38.21-3.82,56.5-10.23a295.08,295.08,0,0,0,52.76-25.22,451.73,451.73,0,0,0,48.43-33.61q11.58-9.15,22.68-18.94,5.53-4.89,10.95-9.92c3.67-3.35,7.09-6.82,10.61-10.23A382,382,0,0,0,675,1018.8a413.16,413.16,0,0,0,55.26-103.22,498.22,498.22,0,0,0,17-56.32c1.17-4.77,2.16-9.58,3.25-14.37l1.44-7.23c.48-2.41,1-4.81,1.41-7.23.86-4.84,1.77-9.67,2.5-14.54.38-2.43.79-4.85,1.14-7.28l1-7.31c.36-2.43.65-4.88.94-7.32l.88-7.33c.51-4.9,1.06-9.79,1.47-14.7q1.35-14.72,2.06-29.51c.51-9.87.83-19.74,1.08-29.69l.69-29.85c.4-19.87.47-39.68,0-59.4s-1.61-39.35-4-58.7-6.25-38.47-13.41-56a99,99,0,0,0-13.81-24.2A64.09,64.09,0,0,0,713.14,467.41Zm6-11.94a78.67,78.67,0,0,1,25.37,20.36A118.85,118.85,0,0,1,761.08,503a191.53,191.53,0,0,1,10.27,29.39,299.52,299.52,0,0,1,6.29,30.09q2.36,15.12,3.57,30.28c.41,5,.79,10.1,1,15.15s.45,10.09.61,15.13c.6,20.17.31,40.26-.15,60.28l-.84,30c-.3,10-.67,20.06-1.24,30.12s-1.28,20.12-2.25,30.17c-.44,5-1,10-1.58,15.06l-.93,7.52c-.32,2.51-.63,5-1,7.51a539,539,0,0,1-29.6,117.6c-14.41,37.92-33.79,74.12-58.4,106.51a396.3,396.3,0,0,1-40.4,45.56c-3.68,3.49-7.31,7.09-11,10.42s-7.52,6.73-11.34,10q-11.48,9.88-23.46,19.15a475,475,0,0,1-50.2,34.07,307.15,307.15,0,0,1-55.28,25.79c-19.36,6.57-39.89,10.81-60.77,10.36a141,141,0,0,1-15.61-1.28,132,132,0,0,1-15.37-3.25,125,125,0,0,1-14.82-5.29,118.74,118.74,0,0,1-13.94-7.24,117.18,117.18,0,0,1-12.86-9,125.07,125.07,0,0,1-11.61-10.44,156,156,0,0,1-19.37-24.16,203.19,203.19,0,0,1-14.75-26.94A266,266,0,0,1,305,1067.1a365.53,365.53,0,0,1-13.68-59.1,492.74,492.74,0,0,1-5.2-60.25,503.94,503.94,0,0,1,2-60.43,428,428,0,0,1,10.15-59.73,470.37,470.37,0,0,1,18.33-57.69A525.4,525.4,0,0,1,341.91,715a573.34,573.34,0,0,1,31.25-51.7c11.28-16.69,23.48-32.73,36.31-48.25s26.51-30.32,40.8-44.51a599.32,599.32,0,0,1,45-40.3q11.73-9.54,24-18.37c8.16-5.94,16.55-11.56,25.07-17s17.27-10.52,26.18-15.35,18-9.32,27.36-13.35c18.66-8.05,38.18-14.64,58.72-17.74A136.51,136.51,0,0,1,688,447.16,87.85,87.85,0,0,1,719.13,455.47Z"/><path class="cls-7" d="M1226.61,526.14c-92.32,16.17-138.27,190-132.08,314.14,6.64,133.33,78.92,319.39,206.85,335.88,81.49,10.5,145.7-53,150.12-57.45,109.15-111.1,49.06-331.12-39.27-456.92C1385.85,624.22,1307.08,512,1226.61,526.14Z"/><path class="cls-3" d="M1228,533.88a84,84,0,0,0-11.53,2.93,89.65,89.65,0,0,0-11,4.74,100.62,100.62,0,0,0-10.36,6.32,112.8,112.8,0,0,0-9.63,7.64c-12.35,11-22.64,24.6-31.39,39.16A297.66,297.66,0,0,0,1131.86,641a436.64,436.64,0,0,0-15.56,49.42c-4.25,16.79-7.64,33.82-10.23,51s-4.4,34.45-5.32,51.78a476.7,476.7,0,0,0,0,52,486.29,486.29,0,0,0,5.85,51.69c2.83,17.14,6.57,34.14,11.07,50.93a515,515,0,0,0,16,49.59,459.94,459.94,0,0,0,21.15,47.54,348.58,348.58,0,0,0,27,44.25,255.78,255.78,0,0,0,33.94,38.72,178.7,178.7,0,0,0,41.76,29.14,138.81,138.81,0,0,0,48.41,13.92,143.2,143.2,0,0,0,50.24-4.08,188.89,188.89,0,0,0,47-19.51,225,225,0,0,0,41.1-30.35c.76-.72,1.51-1.45,2.23-2.17s1.44-1.52,2.15-2.27c1.43-1.57,2.94-3.06,4.3-4.69s2.8-3.18,4.12-4.84,2.66-3.29,4-5a177.67,177.67,0,0,0,13.93-21.24,207.29,207.29,0,0,0,19.08-47.19,266.57,266.57,0,0,0,8.34-50.56,347.92,347.92,0,0,0-.3-51.55,437.32,437.32,0,0,0-7.16-51.26c-3.35-17-7.6-33.75-12.62-50.32a586,586,0,0,0-38.94-96.19q-11.86-23.1-25.79-45c-2.35-3.63-4.71-7.24-7.14-10.8s-4.88-7.07-7.42-10.67c-5-7.14-10.1-14.19-15.3-21.13-10.4-13.88-21.31-27.32-32.86-40.11a337.07,337.07,0,0,0-37-35.53c-13.19-10.66-27.4-20-42.64-26.28a101.2,101.2,0,0,0-23.42-6.54A77.62,77.62,0,0,0,1228,533.88Zm-2.71-15.48a93.56,93.56,0,0,1,28.68-.51,116.81,116.81,0,0,1,27.25,7.35,160.84,160.84,0,0,1,24.69,12.56,224.77,224.77,0,0,1,22.3,15.77,341.22,341.22,0,0,1,39.12,37.11c12.08,13.2,23.26,27.1,33.9,41.33,5.31,7.12,10.48,14.34,15.55,21.55,2.52,3.58,5.08,7.29,7.56,11s4.9,7.46,7.3,11.22q14.25,22.65,26.25,46.55a600.29,600.29,0,0,1,39.33,99.1c10.1,34.13,17,69.31,19.48,105a363.13,363.13,0,0,1-.23,53.69,281.21,281.21,0,0,1-9.34,53.11,222,222,0,0,1-20.79,50,190,190,0,0,1-15.13,22.62c-1.39,1.79-2.85,3.54-4.28,5.3s-3,3.43-4.46,5.15-3.09,3.32-4.64,5c-.81.83-1.52,1.62-2.4,2.48s-1.67,1.61-2.51,2.4a237.29,237.29,0,0,1-43.73,31.71,200.76,200.76,0,0,1-50.17,20.28,163.63,163.63,0,0,1-26.91,4.4,152,152,0,0,1-27.32-.35,150.06,150.06,0,0,1-52.18-15.3,192.35,192.35,0,0,1-44.25-31.05,266.69,266.69,0,0,1-35.29-40.43c-20.79-29.08-36.8-61.13-49.48-94.25a559.38,559.38,0,0,1-28.15-102.45,497.79,497.79,0,0,1-6.49-52.87,483.62,483.62,0,0,1-.48-53.3,559.42,559.42,0,0,1,14.69-105.42A446.66,446.66,0,0,1,1118.57,636a312.41,312.41,0,0,1,22.81-48.79c9.17-15.57,20.09-30.46,33.89-43a129.3,129.3,0,0,1,10.91-8.82,116.51,116.51,0,0,1,12-7.5,105.06,105.06,0,0,1,13.11-5.77A99.18,99.18,0,0,1,1225.25,518.4Z"/><path class="cls-8" d="M902.51,1202.09c56.71-1.25,119.32-44,121.42-100,1.48-39.69-27.84-74.71-58.19-90.18-73.12-37.28-189.27,20-193.53,82.86C768.88,1144,833.58,1203.62,902.51,1202.09Z"/><path class="cls-3" d="M902.4,1197.12c28.26-1.19,56.12-12.32,77.86-30a109.63,109.63,0,0,0,14.88-14.65,92.6,92.6,0,0,0,11.31-17.1,81.19,81.19,0,0,0,9.23-38.32,85.1,85.1,0,0,0-10.63-38.51,104.18,104.18,0,0,0-11.63-17.18c-2.24-2.67-4.6-5.26-7.08-7.74s-5.13-4.78-7.85-7a90.37,90.37,0,0,0-8.52-6.16,84.35,84.35,0,0,0-9.1-5.19,85.85,85.85,0,0,0-9.69-4.07c-.82-.31-1.65-.59-2.49-.85s-1.67-.55-2.52-.78c-1.7-.46-3.39-.94-5.11-1.32a113.89,113.89,0,0,0-21-2.88c-3.55-.18-7.1-.2-10.66-.14s-7.12.3-10.67.66a173.16,173.16,0,0,0-80.2,28.76c-11.79,8.1-22.51,17.95-30.41,29.6s-12.71,25.18-11.32,38.76a65.67,65.67,0,0,0,5.18,20,95.47,95.47,0,0,0,10.37,18.33,132.77,132.77,0,0,0,30.23,29.94,145.85,145.85,0,0,0,38,19.51A121,121,0,0,0,902.4,1197.12Zm.22,9.94a138.56,138.56,0,0,1-45.09-7.38,154.87,154.87,0,0,1-40.39-20.92,141.82,141.82,0,0,1-32.24-32.17,104.74,104.74,0,0,1-11.28-20.14,74.94,74.94,0,0,1-5.77-22.7l-.17-3c0-.5-.06-1-.06-1.49l0-1.49.08-3c0-1,.19-2,.28-3a63.15,63.15,0,0,1,2.53-11.62A78.69,78.69,0,0,1,781,1059.36c8.8-12.73,20.23-23.11,32.59-31.85a184.45,184.45,0,0,1,40-21.09,179,179,0,0,1,44.1-10.66,146.52,146.52,0,0,1,22.86-.54c3.82.24,7.63.58,11.43,1.15s7.58,1.23,11.32,2.14a120.13,120.13,0,0,1,21.91,7.44,115.94,115.94,0,0,1,20,11.68,123.26,123.26,0,0,1,32.1,33.6,96.13,96.13,0,0,1,5.79,10.37,88,88,0,0,1,4.53,11.09,84.34,84.34,0,0,1,4.44,23.81c.13,2,.07,4.08.06,6.12-.16,2-.25,4.08-.47,6.11l-.41,3c-.16,1-.25,2-.49,3l-.65,3-.33,1.49c-.12.49-.27,1-.41,1.47a86.89,86.89,0,0,1-9.54,22.14,112.56,112.56,0,0,1-14.35,18.82,136.54,136.54,0,0,1-17.34,15.58,150.23,150.23,0,0,1-40.56,21.58A140,140,0,0,1,902.62,1207.06Z"/><path class="cls-9" d="M510.28,639.23c-29.79,33.61-100,112.86-92.81,221.33,3.08,46.29,22.73,134.65,73.77,147.55,62.59,15.81,136.55-90.9,166.59-147.55C724,735.8,731.33,563.06,674.49,536.9,622.29,512.88,528.81,618.34,510.28,639.23Z"/><path class="cls-10" d="M1246.06,620c-45.56,8-68.25,93.78-65.19,155.06,3.28,65.82,39,157.66,102.1,165.8,40.23,5.19,71.92-26.13,74.11-28.35,53.87-54.85,24.21-163.45-19.39-225.55C1324.67,668.45,1285.79,613.07,1246.06,620Z"/><path class="cls-11" d="M619.75,653.51C578,635.89,481.38,722.64,460.3,824.86c-10.16,49.29-7.26,124.06,27.37,138s84.29-39.25,98.76-54.74c9.71-10.38,66.59-73.22,61.88-166.58C646.68,709.3,644.39,663.91,619.75,653.51Z"/><path class="cls-12" d="M564.84,741.2c27-12.1,44.6-45.39,38.17-74.42-1.09-4.95-5.28-23.82-18.16-27.93-17.83-5.7-40.94,20.52-51.21,40.76-9.86,19.42-17.78,52.82-3.07,63.79C541.6,751.62,560.07,743.34,564.84,741.2Z"/><path class="cls-12" d="M567.21,760.12c-17.84-5.1-41.33,17.81-47,41.68-5.19,21.72,3.05,49.7,17.77,53.74,19,5.23,52.35-28.68,49.92-61.3C586.93,781.7,580.3,763.86,567.21,760.12Z"/><path class="cls-10" d="M561.26,779.89c-10.46-3-24.23,10.44-27.57,24.43-3,12.73,1.79,29.13,10.42,31.49,11.16,3.07,30.68-16.81,29.25-35.92C572.82,792.54,568.93,782.08,561.26,779.89Z"/><path class="cls-9" d="M556.1,797c-4.06-1.16-9.4,4.05-10.7,9.48-1.18,4.94.7,11.31,4,12.23,4.33,1.19,11.91-6.53,11.36-14C560.59,801.93,559.08,797.87,556.1,797Z"/><path class="cls-7" d="M590.45,873.52c-10.1-9.33-29.34-3-34.3-1.41-28.12,9.2-49.13,40.45-45.79,70,.37,3.29,1.45,12.59,5.57,20.19,29.16-9.93,59.68-42.56,70.5-54.14,1.81-1.93,5.27-5.7,9.65-11.14C597.33,887.37,596.07,878.71,590.45,873.52Z"/><path class="cls-9" d="M1242.07,675.21c-39.14,11.39-54.81,97.17-38.07,159.45,3.85,14.34,22.37,83.25,73.77,92.81,34.41,6.4,62.71-17.68,64.26-19,27.26-23.91,28.2-59.24,28.56-72.58C1372.8,753,1288.82,661.6,1242.07,675.21Z"/><path class="cls-7" d="M1255.64,748.85c-10.17,1.78-15.23,20.92-14.54,34.59.73,14.69,8.69,35.17,22.77,37,9,1.15,16.05-5.83,16.53-6.33,12-12.23,5.4-36.46-4.32-50.31C1273.17,759.65,1264.5,747.3,1255.64,748.85Z"/><path class="cls-12" d="M1215.9,685.92c-8,19.11-5,43.64,9.28,60.92,4.17,5,16.49,19.93,28.58,17.37,17.73-3.76,30.38-44.07,16.87-71.75-7-14.25-23.42-30.42-37.48-26.77C1223.3,668.25,1218.58,679.51,1215.9,685.92Z"/><path class="cls-11" d="M1360.75,883.48a11.73,11.73,0,0,0-.28-7.33c-4.46-10.95-27.68-10.41-39.86-8.18-10.06,1.84-27,4.95-32.13,19-4.16,11.48,1.09,26,10.71,32.13,16.25,10.37,39.15-6.88,48.11-15.85A77.55,77.55,0,0,0,1360.75,883.48Z"/><path class="cls-7" d="M425.87,1298.44c68.77,43.22,238.58,137.09,474.78,139.22,241.88,2.19,416.57-93.06,485.48-135.65-64.15,205.71-250,349-460.5,357C700.56,1667.48,493.42,1519.43,425.87,1298.44Z"/><g class="cls-13"><path class="cls-14" d="M766.39,1431.73,651,1592.78a501.93,501.93,0,0,0,130.62,55.5Z"/><path class="cls-14" d="M489.65,1438.46v-98.18l-34.44,38A511.16,511.16,0,0,0,489.65,1438.46Z"/><path class="cls-14" d="M651,1592.78l6.14-185.54L551.91,1514.71A511.87,511.87,0,0,0,651,1592.78Z"/><path class="cls-14" d="M919.6,1664.44l-39.32-221.85-98.63,205.69A489.69,489.69,0,0,0,919.6,1664.44Z"/><path class="cls-14" d="M489.66,1438.47a511.56,511.56,0,0,0,62.23,76.22l13-139.61Z"/><path class="cls-14" d="M1203.36,1565.52,1102,1422.09l-32,214.62A502.26,502.26,0,0,0,1203.36,1565.52Z"/><path class="cls-14" d="M925.63,1664.34a489.86,489.86,0,0,0,144.31-27.61l-85.06-196.9-65.25,224.61C921.64,1664.39,923.63,1664.42,925.63,1664.34Z"/><path class="cls-14" d="M1345.49,1331v71.51a514.19,514.19,0,0,0,25.08-52.3Z"/><path class="cls-14" d="M1386.13,1307.37,1371.08,1349C1376.64,1335.44,1381.7,1321.57,1386.13,1307.37Z"/><path class="cls-14" d="M1284,1490.69l-80.54-97v171.82A511.16,511.16,0,0,0,1284,1490.69Z"/><path class="cls-14" d="M1345.45,1402.6l-58.57-42.25-2.89,130.3A512,512,0,0,0,1345.45,1402.6Z"/><polygon class="cls-14" points="395.75 1265.87 452.98 1300.75 447.51 1405.54 395.75 1265.87"/></g><path class="cls-3" d="M422.62,1294.19a40.31,40.31,0,0,1,6.32.88,24.23,24.23,0,0,1,6.55,2.79l6.84,3.91c4.56,2.58,9.12,5.15,13.72,7.64q13.8,7.52,27.8,14.6c4.65,2.39,9.36,4.65,14,7s9.44,4.51,14.18,6.71,9.49,4.38,14.29,6.45l7.16,3.17c2.39,1.06,4.81,2.06,7.21,3.09q28.83,12.27,58.42,22.55t59.71,18.62a914.74,914.74,0,0,0,246.66,33.22l15.58-.14c5.19-.08,10.38-.32,15.58-.47l7.78-.26,7.78-.45c5.18-.32,10.37-.55,15.55-.94q31.07-2.28,61.94-6.54l15.4-2.31c5.13-.79,10.24-1.74,15.35-2.6s10.22-1.84,15.32-2.83,10.2-1.93,15.26-3.07,10.16-2.12,15.21-3.32l15.16-3.59,15.08-3.89c5-1.3,10-2.76,15-4.14a1164.63,1164.63,0,0,0,117.88-40.45c38.66-15.5,76.41-33.3,113.9-52.32h0a5.25,5.25,0,0,1,8.06,5.64l-.13.51c-13.66,52.36-37,102.39-67.93,147.24a488.92,488.92,0,0,1-51.79,63.17,516.36,516.36,0,0,1-205.78,129.49,495.92,495.92,0,0,1-321.23-2.5,508.92,508.92,0,0,1-74.57-32.94,515.95,515.95,0,0,1-220.31-232.35l-4.25-9.21-2.13-4.61c-.71-1.53-1.3-3.12-2-4.68l-3.85-9.38c-1.25-3.14-2.64-6.22-3.73-9.43l-3.46-9.53-1.73-4.76-.86-2.38-.22-.6c-.07-.19-.14-.39-.22-.66l-.48-1.51a79.18,79.18,0,0,1-2.89-12.83C423.25,1301.8,423,1297.8,422.62,1294.19Zm6.51,8.51c1.68,2.74,3.53,5.09,5,7.1a22.48,22.48,0,0,1,3.36,6.22l.31.87c0,.13.11.32.19.52l.23.58.9,2.31,1.8,4.62,3.59,9.24c1.13,3.1,2.57,6.08,3.86,9.12l4,9.08c.67,1.51,1.29,3,2,4.52l2.17,4.46,4.33,8.91a510.22,510.22,0,0,0,150.63,180.42,502.61,502.61,0,0,0,138.88,73.21,486.73,486.73,0,0,0,154.52,25.77,477.11,477.11,0,0,0,78.27-6.29,484.22,484.22,0,0,0,76.15-19,493.44,493.44,0,0,0,138.5-72.85,527,527,0,0,0,109.65-111.85,550,550,0,0,0,41.55-66.89,591.29,591.29,0,0,0,32-72.37l7.93,6.15h0c-8.53,6.37-17.3,12.41-26.21,18.25s-18,11.45-27.17,16.85c-18.38,10.82-37.3,20.74-56.6,29.88a774.12,774.12,0,0,1-120,44.93c-5.16,1.41-10.3,2.91-15.48,4.24l-15.54,4-15.63,3.67c-5.2,1.22-10.45,2.25-15.68,3.39-20.94,4.34-42,8-63.24,10.84-5.3.74-10.62,1.31-15.92,2-2.66.31-5.31.66-8,.94l-8,.77-8,.77-4,.39-4,.3-16,1.14c-5.34.34-10.68.53-16,.8l-8,.37-8,.19c-5.34.1-10.69.29-16,.32l-16,0a890.11,890.11,0,0,1-252.35-39q-30.58-9.37-60.41-20.88T534,1365.48c-19.27-9-38.16-18.8-56.68-29.2-9.28-5.17-18.42-10.59-27.47-16.14-4.53-2.76-9-5.6-13.49-8.44l-6.66-4.32c-.38-.27-.31-.58-.16-1.39A6.19,6.19,0,0,0,429.13,1302.7Z"/><path class="cls-4" d="M1283.21,305.64c292.18,245.52,384.64,648.15,236.11,967.82-173.06,372.47-640.18,561-1060.51,394.81,147.89,60.12,312.9,91.41,462.88,91.41,297.11,0,760.36-96,855.43-515C1837,980.74,1644.14,471.06,1283.21,305.64Z"/><path class="cls-4" d="M935.67,1162.79c-35.55,23.62-75.8,23.9-104.91,19.35,21.16,12.64,46.16,20.52,71.75,19.95,56.71-1.25,119.32-44,121.42-100,.89-23.9-9.42-46.08-24.37-63.34C997.62,1090.71,974.11,1137.27,935.67,1162.79Z"/><path class="cls-6" d="M1519.32,1273.46c-108.2,232.87-331.34,393.84-586.13,441.18,87.74-2.88,374.46-19.16,548.06-244.85,116.18-151,123.89-320.74,127.32-396.24a788.27,788.27,0,0,0-30.64-255.63C1603.8,972.08,1585.51,1131,1519.32,1273.46Z"/><path class="cls-3" d="M1603.22,1073.31a783.24,783.24,0,0,0-39.83-284c-7.67-22.77-16.36-45.2-26.24-67.07-4.93-10.95-10.17-21.7-15.74-32.38s-11.14-21.43-16.87-32c-11.45-21.2-23.47-42.06-36.39-62.34a666.88,666.88,0,0,0-41.7-58.66,434.17,434.17,0,0,0-49-52.26c-17.78-15.82-37.16-29.9-58.34-40.35s-44.05-17.23-67.45-18.59a157.72,157.72,0,0,0-17.53,0c-2.93.1-5.83.43-8.74.7-1.46.12-2.9.38-4.35.56s-2.9.37-4.34.66l-4.32.77c-1.43.27-2.86.63-4.29.93-2.87.58-5.68,1.42-8.52,2.14-5.62,1.66-11.21,3.45-16.67,5.66-21.91,8.64-42.23,21.32-61.25,35.72s-37,30.48-54.94,46.68c-9,8.1-18,16.25-27.2,24.21s-18.66,15.76-28.63,23q-7.45,5.46-15.39,10.36a166,166,0,0,1-16.45,9c-11.36,5.33-23.7,9.26-36.56,10.35a89.93,89.93,0,0,1-55.21-13.82,92.75,92.75,0,0,1-15-12c-9.14-9-16.36-19.48-22.36-30.37a277.33,277.33,0,0,1-15.29-33.68c-8.81-22.83-15.87-46-24.77-68.15a254.39,254.39,0,0,0-15.21-32.1,133,133,0,0,0-20.81-27.86,94.61,94.61,0,0,0-28-19.55c-1.32-.55-2.6-1.19-4-1.68l-4-1.51-1-.37-1-.32-2.06-.62c-1.38-.4-2.73-.9-4.15-1.19l-4.2-1c-1.4-.34-2.84-.53-4.26-.8-2.83-.59-5.72-.85-8.59-1.22a153.88,153.88,0,0,0-35,.75A218.69,218.69,0,0,0,643,358.44c-22.71,6.85-44.59,16.68-65.55,28.13q-15.74,8.61-30.82,18.39t-29.52,20.52c-38.54,28.59-73.89,61.5-106.09,97.17a803.49,803.49,0,0,0-86.51,115.14c-6.29,10.23-12.43,20.56-18.2,31.09S294.94,690,289.7,700.82c-2.68,5.37-5.16,10.84-7.72,16.27s-4.93,10.94-7.23,16.48-4.57,11.09-6.81,16.65l-6.59,16.89c-8.73,22.5-16.94,45.13-24.18,68.07s-13.56,46.16-18.88,69.59a736.28,736.28,0,0,0-18,142.77,691.13,691.13,0,0,0,1.93,72,706.81,706.81,0,0,0,9.43,71.39c4.3,23.73,9.31,47.23,15.61,70.4a658.9,658.9,0,0,0,22.53,68.34,577,577,0,0,0,68.46,126.08c3.57,4.81,7.05,9.68,10.77,14.38,1.85,2.35,3.64,4.76,5.54,7.08l5.68,7,2.85,3.47L346,1491l5.87,6.81,6,6.65c2,2.21,4,4.45,6.11,6.59a544.31,544.31,0,0,0,52.66,48.85c37.15,30.3,78.32,55.59,121.68,76.12s89,36.29,135.67,47.91a888.28,888.28,0,0,0,142.28,23q36,2.94,72.09,3.1c12,.06,24-.15,36.11-.53s24.1-.79,36.12-1.48a920.2,920.2,0,0,0,142.92-19q35.25-7.65,69.71-18.35c11.47-3.57,22.83-7.46,34.11-11.59s22.46-8.52,33.49-13.25a620.14,620.14,0,0,0,125-70.74A556.62,556.62,0,0,0,1469.51,1476a568.39,568.39,0,0,0,41.27-58.8,576.6,576.6,0,0,0,33.51-63.57,642.84,642.84,0,0,0,43.25-137c2.3-11.79,4.42-23.61,6.17-35.5s3.28-23.81,4.54-35.76C1600.75,1121.47,1602.17,1097.46,1603.22,1073.31Zm17.06.77c-.94,24.22-2.27,48.73-4.71,73.13q-1.85,18.3-4.47,36.55c-1.74,12.17-3.86,24.29-6.15,36.37-1.25,6-2.4,12.08-3.79,18.08-.68,3-1.33,6-2,9l-2.19,9c-.71,3-1.51,6-2.31,9l-2.38,8.93-2.58,8.89-1.28,4.44-1.38,4.42a637.27,637.27,0,0,1-25.9,69.38,596.45,596.45,0,0,1-34.21,65.86,585.89,585.89,0,0,1-42.33,61.08c-7.77,9.66-15.72,19.2-24.11,28.34-4.11,4.65-8.45,9.08-12.71,13.6-2.16,2.22-4.37,4.4-6.55,6.61l-3.28,3.3-3.36,3.22c-8.87,8.69-18.17,16.92-27.59,25s-19.23,15.7-29.15,23.15-20.16,14.45-30.53,21.27-21,13.2-31.74,19.35-21.73,11.9-32.82,17.42-22.34,10.66-33.69,15.56c-45.45,19.6-92.87,34.12-141,44.63q-36.11,7.88-72.76,12.59t-73.43,6.76c-12.25.68-24.54,1.11-36.67,1.44s-24.54.49-36.82.38q-36.89-.33-73.65-3.47c-24.49-2.11-48.9-5.11-73.16-9.14s-48.35-9.12-72.19-15.27c-11.92-3.07-23.78-6.36-35.55-10s-23.49-7.43-35.07-11.64-23.11-8.59-34.46-13.42-22.62-9.81-33.7-15.24c-44.38-21.53-86.55-47.95-124.47-79.61a560.32,560.32,0,0,1-53.7-50.9c-2.14-2.23-4.16-4.55-6.22-6.85L340,1508.3l-6-7.07-3-3.53-2.89-3.6-5.78-7.22c-1.92-2.41-3.74-4.9-5.61-7.34-3.78-4.87-7.31-9.92-10.93-14.9a591.09,591.09,0,0,1-68.86-130,672.19,672.19,0,0,1-22.27-70c-3.08-11.84-5.84-23.74-8.39-35.68s-4.77-23.93-6.86-35.89-4-24.1-5.45-36.22c-.87-6.05-1.4-12.14-2-18.21s-1.09-12.16-1.56-18.25-.77-12.19-1.07-18.29-.45-12.2-.59-18.3-.15-12.2-.16-18.3.19-12.2.31-18.3c1.38-48.8,8.07-97.34,18.9-144.83Q216,866.81,227.1,832c7.37-23.19,15.72-46,24.54-68.65l6.6-16.92c2.28-5.65,4.5-11.33,6.92-16.93s4.87-11.17,7.34-16.74,5.11-11.07,7.84-16.52c5.31-11,11-21.75,16.88-32.41s12.09-21.15,18.43-31.54A820.65,820.65,0,0,1,403,515.38q12.19-13.59,25-26.68t26.21-25.49a696.33,696.33,0,0,1,56.12-47q14.67-11,30-21.08t31.47-19c21.48-11.86,44-22.15,67.73-29.44A230.08,230.08,0,0,1,676,338.52a165.07,165.07,0,0,1,37.86-.94c3.18.39,6.36.68,9.51,1.31,1.58.29,3.17.5,4.73.88l4.7,1.11c1.58.32,3.11.86,4.66,1.3l2.32.7,1.16.35,1.14.42,4.56,1.69c1.52.55,3,1.26,4.48,1.89a107.48,107.48,0,0,1,31.88,22,145.69,145.69,0,0,1,23,30.48,268.7,268.7,0,0,1,16.13,33.67c9.27,22.85,16.44,46.05,25.11,68.2a261,261,0,0,0,14.65,32c5.59,10.09,12.14,19.46,20,27.17a75.89,75.89,0,0,0,27.42,17.38,74.48,74.48,0,0,0,32,4.37c10.83-1,21.53-4.33,31.77-9.16a151.46,151.46,0,0,0,15-8.28q7.37-4.56,14.47-9.79c9.46-6.93,18.61-14.52,27.64-22.35s17.93-15.95,26.89-24.08c17.92-16.27,36.1-32.68,55.79-47.63s41-28.45,64.6-37.84c5.87-2.38,11.94-4.35,18-6.17,3.09-.8,6.15-1.7,9.28-2.35,1.57-.34,3.12-.73,4.69-1l4.72-.86c1.57-.31,3.16-.5,4.74-.73s3.17-.48,4.77-.63c3.18-.3,6.37-.67,9.57-.79a173.39,173.39,0,0,1,19.21,0,184.57,184.57,0,0,1,19.06,2.14,182,182,0,0,1,18.68,4.16l2.31.63,2.28.7c1.52.48,3,.93,4.56,1.43,3,1.06,6,2.06,9,3.24,5.94,2.25,11.72,4.85,17.4,7.63,22.74,11.15,43.2,26,61.82,42.46a448.51,448.51,0,0,1,50.86,54c30.92,38.41,56.68,80.31,80,123.13,5.82,10.71,11.49,21.49,17.08,32.23s11.14,21.93,16.21,33.1c10.18,22.39,19.12,45.28,27,68.51a799.7,799.7,0,0,1,41.46,289.92Z"/></g></g></svg>