<svg xmlns="http://www.w3.org/2000/svg" viewBox="0 0 39.67 39.67"><defs><style>.cls-1{fill:#001e36;}.cls-2{fill:#31a8ff;}</style></defs><g id="Layer_2" data-name="Layer 2"><g id="Layer_1-2" data-name="Layer 1"><rect class="cls-1" width="39.67" height="39.67" rx="5.81"/><path class="cls-2" d="M8.86,28.2V11.45c0-.12.05-.19.15-.19h1l1.25,0,1.41,0h1.48a10.06,10.06,0,0,1,3.36.49A6,6,0,0,1,19.7,13a5.16,5.16,0,0,1,1.19,1.85A6,6,0,0,1,21.25,17a5.81,5.81,0,0,1-1,3.46,5.49,5.49,0,0,1-2.62,2A10.4,10.4,0,0,1,14,23H12.47v5.16a.17.17,0,0,1,0,.1.35.35,0,0,1-.05.08l-.09,0H9Q8.86,28.41,8.86,28.2Zm3.61-13.79v5.43l.63,0H14a6.26,6.26,0,0,0,1.87-.26,2.73,2.73,0,0,0,1.34-.87,2.46,2.46,0,0,0,.51-1.67,2.68,2.68,0,0,0-.38-1.44,2.41,2.41,0,0,0-1.14-.93,4.81,4.81,0,0,0-1.91-.33H13.14C12.82,14.38,12.6,14.39,12.47,14.41Z"/><path class="cls-2" d="M31.46,18.79a8.9,8.9,0,0,0-1.89-.55A8,8,0,0,0,27.75,18a3.6,3.6,0,0,0-1,.11,1,1,0,0,0-.52.33.9.9,0,0,0-.13.45.73.73,0,0,0,.16.42,1.78,1.78,0,0,0,.55.43,12,12,0,0,0,1.15.54,11.31,11.31,0,0,1,2.51,1.19,3.85,3.85,0,0,1,1.28,1.35,3.63,3.63,0,0,1,.38,1.68,3.69,3.69,0,0,1-.63,2.16,4.11,4.11,0,0,1-1.82,1.45,7.28,7.28,0,0,1-2.95.53,10.28,10.28,0,0,1-2.21-.21,7.84,7.84,0,0,1-1.77-.53.29.29,0,0,1-.14-.13.37.37,0,0,1-.05-.18V24.79a.19.19,0,0,1,0-.08.1.1,0,0,1,0-.06.1.1,0,0,1,.07,0,.09.09,0,0,1,.07,0,7.72,7.72,0,0,0,2.13.8,8.77,8.77,0,0,0,1.91.25,3,3,0,0,0,1.35-.24.72.72,0,0,0,.32-.28.7.7,0,0,0,0-.77.94.94,0,0,0-.27-.29,6.71,6.71,0,0,0-1.6-.76,9.4,9.4,0,0,1-2.32-1.18,4,4,0,0,1-1.23-1.37,3.59,3.59,0,0,1-.38-1.67,3.77,3.77,0,0,1,.55-2,4,4,0,0,1,1.7-1.5A5.49,5.49,0,0,1,27.6,15a16.33,16.33,0,0,1,2.21,0,8.19,8.19,0,0,1,1.73.58.18.18,0,0,1,.09.06.15.15,0,0,1,.06.09.63.63,0,0,1,0,.19v2.65a.15.15,0,0,1,0,.09.13.13,0,0,1-.06.07l-.09,0Z"/></g></g></svg>