<svg xmlns="http://www.w3.org/2000/svg" viewBox="0 0 39.67 39.67"><defs><style>.cls-1{fill:#00005b;}.cls-2{fill:#99f;}</style></defs><g id="Layer_2" data-name="Layer 2"><g id="Layer_1-2" data-name="Layer 1"><rect class="cls-1" width="39.67" height="39.67" rx="5.81"/><path class="cls-2" d="M9.35,28.08V11.36c0-.14.08-.21.15-.21h3.68c.5,0,1.13.14,1.63.14a10.66,10.66,0,0,1,3.33.49A5.51,5.51,0,0,1,21.54,15a7.53,7.53,0,0,1,.35,2.13,5.65,5.65,0,0,1-1,3.47,5.21,5.21,0,0,1-2.62,2,10.76,10.76,0,0,1-3.68.64h-.78c-.14,0-.78-.14-1.14-.14v5.17a.19.19,0,0,1-.21.21h-3C9.43,28.29,9.35,28.22,9.35,28.08Zm3.4-13.82v5.46c.22,0,.85.14,1.07.14h.85a5.37,5.37,0,0,0,1.84-.28,2.86,2.86,0,0,0,1.35-.85,2.46,2.46,0,0,0,.49-1.7A3.24,3.24,0,0,0,18,15.61a2.34,2.34,0,0,0-1.14-.92A6.09,6.09,0,0,0,15,14.33H13.82A4.21,4.21,0,0,1,12.75,14.26Z"/><path class="cls-2" d="M24.16,15.4H27a.46.46,0,0,1,.36.28c.07.14.14.21.14.35a1.26,1.26,0,0,1,.07.5v.57a5.72,5.72,0,0,1,1.77-1.42,3.8,3.8,0,0,1,2.27-.57c.14,0,.21.07.21.15v3.25c0,.15-.07.22-.28.22a3.82,3.82,0,0,0-1.56.14,4.34,4.34,0,0,0-1.35.42,3.3,3.3,0,0,0-1.06.64v8.29a.19.19,0,0,1-.21.21h-3c-.14,0-.21-.07-.28-.21V18A7.85,7.85,0,0,0,24,16.67c0-.35-.07-.71-.07-1.06,0-.07,0-.07.07-.14S24.09,15.4,24.16,15.4Z"/></g></g></svg>