<svg xmlns="http://www.w3.org/2000/svg" viewBox="0 0 1367 139.31"><defs><style>.cls-1{fill:#fff;}</style></defs><g id="Layer_2" data-name="Layer 2"><g id="Layer_1-2" data-name="Layer 1"><path class="cls-1" d="M1367,47.48a19.42,19.42,0,0,1-4.72-2.16c-3.59-2.23-3.71-3.64-7.39-7.3-7.45-7.38-20.74-15.28-26.46-12.51-4.94,2.4-.4,10.92-7.08,15a13,13,0,0,1-11.27.75c-3.84-1.63-6.39-5.42-5.71-8.49.5-2.28,2.42-2.55,2.71-4.08,1.13-6.09-26.72-16.53-30.08-12.7-1.64,1.85,3.6,5.84,1.56,8.33s-9.61,1.5-15-.29c-8.89-3-9.74-7.49-17.81-11.15-7.81-3.53-15.62-3.21-18.34-3.1-17.73.73-22.79,12.57-34.58,10.55-3.51-.61-2.33-1.53-16.39-9.73-15.23-8.88-17.84-8.51-19.07-8-3.81,1.46-3.49,7.33-3.72,17.78v0a7.42,7.42,0,0,1-2.56,5.43c-4.4,3.78-6,8.61-12.55,9.65-10.36,1.67-14.55-8.68-32.34-14.33-2.47-.79-26.46-8.13-40.32.86a17.69,17.69,0,0,0-2.77,2.18h0a66.44,66.44,0,0,0-8-3.62c-18.46-6.85-44.51-6-51.29,3.68-2.46,3.5-.38,5.28-2.84,9.51-3.42,5.88-12.08,10.39-21.48,12.15a10.21,10.21,0,0,1-10.72-4.66,7.38,7.38,0,0,1-1-4.47c.88-9.72,18.85-11.31,20.33-21.92C989,8.38,983.47,1,977.54.08c-5.65-.84-8.22,4.77-21.37,14.25a123.23,123.23,0,0,1-13.16,8h0c-2.45-6.05-5.1-11.15-10.79-12.18-9-1.63-23.06,7.29-29.05,19.64-10.41-2.36-14.78-7.27-29.44-6.14-16.92,1.3-18.23,7.75-43.87,13a107.72,107.72,0,0,1-15,2.17h0c-4.33-15-14.24-28.5-24.47-28.55-13.14-.06-16.23,22.13-44,32.9-11.79,4.59-17.36,2.94-19.63,1.95-5.48-2.38-5.7-7-11.6-10.53a26.18,26.18,0,0,0-18.39-2.76c-10.66,2.62-10.23,12.2-21.1,16.81-6.89,2.92-14.1,2-22.14.57-41-7.58-52.4-21.84-75.66-21a61.06,61.06,0,0,0-25,6.49c-17.75-4.8-20.59-9.9-35.42-11-14.66-1.13-19,3.78-29.45,6.14h0C482,17.47,467.93,8.55,459,10.18c-5.68,1-8.34,6.13-10.79,12.18h0a124.5,124.5,0,0,1-13.16-8C421.86,4.85,419.29-.76,413.64.08c-5.92.89-11.44,8.3-10.54,14.75,1.48,10.61,19.44,12.2,20.32,21.92a7.24,7.24,0,0,1-1,4.47,10.2,10.2,0,0,1-10.72,4.66c-9.39-1.76-18.06-6.27-21.48-12.15-2.46-4.23-.38-6-2.83-9.51-6.79-9.67-32.83-10.53-51.29-3.68a65.88,65.88,0,0,0-8,3.62h0A17.59,17.59,0,0,0,325.29,22c-13.86-9-37.85-1.65-40.33-.86-17.79,5.65-22,16-32.34,14.33-7.59-1.22-8.57-7.59-15-11.45h0c0-1.19-.06-2.41-.08-3.67-.23-10.45.08-16.32-3.73-17.78-1.23-.48-3.83-.85-19.06,8-14.07,8.2-12.89,9.12-16.4,9.73-11.78,2-16.84-9.82-34.57-10.55-2.73-.11-10.54-.43-18.34,3.1-8.08,3.66-8.93,8.19-17.82,11.15-5.36,1.79-12.95,2.77-15,.29s3.2-6.48,1.57-8.33c-3.37-3.83-31.22,6.61-30.08,12.7.28,1.53,2.2,1.8,2.7,4.08.68,3.07-1.87,6.86-5.7,8.49a13,13,0,0,1-11.27-.75c-6.68-4.06-2.15-12.58-7.09-15C57,22.74,43.75,30.64,36.3,38c-3.69,3.66-3.81,5.07-7.4,7.3-6,3.74-10.32,2.69-19.8,5A86.67,86.67,0,0,0,0,52.85V122a13.57,13.57,0,0,0,5.73,1.64c13.13.51,17.3-21.56,45.52-31.38C63.26,88.11,68.74,89.94,71,91c5.35,2.57,5.35,7.19,11.08,10.91a26,26,0,0,0,18.24,3.39c10.77-2.25,10.81-11.84,21.89-16.07,7-2.68,14.19-1.57,22.15.19C185,98.4,195.63,113,218.91,113c23.66,0,45.8-15.11,52.69-30.89a35.32,35.32,0,0,0,1.69-4.81h0c6.59,2.53,12.07,6.43,14.44,11,2.23,4.31.06,6,2.32,9.6,6.26,9.92,32.23,11.77,51,5.62a67.23,67.23,0,0,0,11.45-5h0a17.16,17.16,0,0,0,3.71,2.88c14.33,8.45,37.9.2,40.33-.68,17.47-6.32,21.09-16.82,31.53-15.54,9.23,1.12,9.24,10.12,20.54,12.68,14.41,3.26,32.21-4.55,32.08-10.26a4.15,4.15,0,0,0-1.55-2.84c5.63,3,9.17,6.24,10.36,10.31,1.29,4.37-1.21,6,.5,9.23,4.61,8.85,30.73,12,39.75,3.55,5.07-4.72,2-10.52,7.2-13s12.68,1.13,20,4.53l.06,0a10,10,0,0,1,5.74,8.21c.35,4.06.68,8.64,1,13.75.74,10.44.7,16.31,4.59,17.65,1.25.43,3.87.71,18.66-8.68,13.65-8.67,12.42-9.56,15.9-10.28,11.68-2.42,17.31,9.23,35.06,9.35,2.73,0,10.55.08,18.18-3.72,7.89-3.94,8.52-8.48,17.26-11.75,5.27-2,12.81-3.21,15-.81s-2.88,6.59-1.16,8.39c3.55,3.71,30.87-7.68,29.44-13.72-.36-1.52-2.29-1.73-2.9-4-.83-3,1.54-6.91,5.29-8.68a13.05,13.05,0,0,1,11.3.37c6.87,3.83,2.75,12.5,7.8,14.73C744,112.93,756.89,104.58,764,97c3.51-3.78,3.57-5.2,7-7.55,3.94-2.67,7.23-3.12,11.85-3.93,11.88,2.77,25.73,3.28,25.81,6.74.1,4.58-24.11,6.12-24.33,11.6-.17,4.42,15.25,11.33,27.88,8.36,8-1.89,8.29-6.23,22-12.66,7.28-3.4,14.84-6.94,20-4.53s2.13,8.23,7.19,13c9,8.4,35.14,5.3,39.76-3.55,1.7-3.26-.79-4.86.49-9.23,1.2-4.07,4.74-7.35,10.37-10.31a4.13,4.13,0,0,0-1.56,2.84c-.12,5.71,17.67,13.52,32.08,10.26,11.3-2.56,11.31-11.56,20.54-12.68,10.44-1.28,14.07,9.22,31.54,15.54,2.43.88,26,9.13,40.33.68a17.66,17.66,0,0,0,3.71-2.88h0a67.12,67.12,0,0,0,11.44,5c18.81,6.15,44.78,4.3,51-5.62,2.27-3.59.09-5.29,2.32-9.6,2.37-4.6,7.85-8.5,14.45-11a35.31,35.31,0,0,0,1.68,4.81c6.9,15.78,29,30.9,52.69,30.89,23.29,0,34-14.64,74.58-23.61,8-1.76,15.13-2.87,22.16-.19,11.07,4.23,11.12,13.82,21.89,16.07a26,26,0,0,0,18.24-3.39c5.72-3.72,5.72-8.34,11.08-10.91,2.22-1.07,7.7-2.9,19.71,1.27,13.11,4.56,21,11.77,27.07,18.13Z"/></g></g></svg>