<svg xmlns="http://www.w3.org/2000/svg" viewBox="0 0 1367 139.31"><defs><style>.cls-1{fill:#fff;}</style></defs><g id="Layer_2" data-name="Layer 2"><g id="Layer_1-2" data-name="Layer 1"><path class="cls-1" d="M1367,46c-.4-.22-.8-.45-1.22-.71-3.59-2.23-3.71-3.64-7.39-7.29-7.45-7.39-20.74-15.29-26.46-12.52-4.94,2.4-.4,10.92-7.08,15a13,13,0,0,1-11.27.75c-3.84-1.63-6.39-5.42-5.71-8.49.5-2.28,2.42-2.55,2.71-4.08,1.13-6.09-26.72-16.53-30.08-12.7-1.64,1.85,3.6,5.84,1.56,8.33s-9.61,1.5-15-.29c-8.89-3-9.74-7.49-17.81-11.15-7.81-3.53-15.62-3.21-18.34-3.1-17.73.73-22.79,12.57-34.58,10.55-3.51-.61-2.33-1.53-16.39-9.73-15.23-8.88-17.84-8.5-19.07-8-3.81,1.46-3.49,7.33-3.72,17.78,0,1.26-.06,2.48-.08,3.67h0c-6.46,3.86-7.44,10.23-15,11.45-10.36,1.67-14.55-8.68-32.34-14.33-2.47-.79-26.46-8.13-40.32.86a17.69,17.69,0,0,0-2.77,2.18h0a66.44,66.44,0,0,0-8-3.62c-18.46-6.85-44.51-6-51.29,3.68-2.46,3.5-.38,5.28-2.84,9.51-3.42,5.88-12.08,10.39-21.48,12.15a10.21,10.21,0,0,1-10.72-4.66,7.38,7.38,0,0,1-1-4.47c.88-9.72,18.85-11.31,20.33-21.92C992.49,8.38,987,1,981,.08c-5.65-.84-8.22,4.77-21.37,14.25a123.23,123.23,0,0,1-13.16,8h0c-2.45-6.05-5.1-11.15-10.79-12.18-9-1.63-23.06,7.29-29.05,19.64h0c-10.41-2.36-14.78-7.27-29.44-6.14-14.83,1.14-17.68,6.24-35.42,11h0a61.26,61.26,0,0,0-25-6.49c-23.27-.79-34.64,13.47-75.67,21.05-8,1.48-15.25,2.35-22.14-.57-10.86-4.61-10.44-14.19-21.1-16.81a26.2,26.2,0,0,0-18.38,2.76c-5.9,3.53-6.13,8.15-11.6,10.53-2.28,1-7.84,2.64-19.64-1.95-27.72-10.77-30.82-33-44-32.9-10.23.05-20.13,13.56-24.46,28.55a107.52,107.52,0,0,1-15-2.17c-25.64-5.29-27-11.74-43.87-13-14.66-1.13-19,3.78-29.45,6.14h0c-6-12.35-20.08-21.27-29.05-19.64-5.68,1-8.34,6.13-10.79,12.18h0a124.5,124.5,0,0,1-13.16-8C425.36,4.85,422.79-.76,417.14.08c-5.92.89-11.44,8.3-10.54,14.75C408.08,25.44,426,27,426.92,36.75a7.24,7.24,0,0,1-1,4.47,10.2,10.2,0,0,1-10.72,4.66c-9.39-1.76-18.06-6.27-21.48-12.15-2.46-4.23-.38-6-2.83-9.51-6.79-9.67-32.83-10.53-51.29-3.68a65.88,65.88,0,0,0-8,3.62h0A18.22,18.22,0,0,0,328.79,22c-13.86-9-37.85-1.64-40.33-.85-17.79,5.65-22,16-32.34,14.33-6.5-1-8.15-5.87-12.54-9.65A7.35,7.35,0,0,1,241,20.37v0c-.23-10.45.08-16.32-3.73-17.78-1.23-.48-3.83-.85-19.06,8-14.07,8.2-12.89,9.12-16.4,9.72-11.78,2-16.84-9.81-34.57-10.54-2.73-.11-10.54-.43-18.34,3.1C140.84,16.52,140,21.05,131.1,24c-5.36,1.79-12.95,2.77-15,.29s3.2-6.48,1.57-8.33c-3.37-3.83-31.22,6.61-30.08,12.7.28,1.53,2.2,1.8,2.7,4.08.68,3.07-1.87,6.86-5.7,8.49a13,13,0,0,1-11.27-.75c-6.68-4.06-2.15-12.58-7.09-15-5.71-2.77-19,5.13-26.45,12.51-3.69,3.66-3.81,5.07-7.4,7.3-6,3.74-10.32,2.69-19.8,5a67.16,67.16,0,0,0-12.6,4v65.37a15.5,15.5,0,0,0,9.23,4c13.13.51,17.3-21.56,45.52-31.38,12-4.17,17.49-2.34,19.72-1.27,5.35,2.57,5.35,7.19,11.08,10.91a26,26,0,0,0,18.24,3.39c10.77-2.25,10.81-11.84,21.89-16.07,7-2.68,14.19-1.57,22.15.19,40.63,9,51.3,23.61,74.58,23.61,23.66,0,45.8-15.11,52.69-30.89a35.32,35.32,0,0,0,1.69-4.81c6.59,2.53,12.07,6.43,14.44,11,2.23,4.31.06,6,2.32,9.6,6.26,9.92,32.23,11.77,51,5.62a67.23,67.23,0,0,0,11.45-5h0a17.16,17.16,0,0,0,3.71,2.88c14.33,8.45,37.9.2,40.33-.68,17.47-6.32,21.09-16.82,31.53-15.54,9.23,1.12,9.24,10.12,20.54,12.68,14.41,3.26,32.21-4.55,32.08-10.26a4.15,4.15,0,0,0-1.55-2.84c5.63,3,9.17,6.24,10.36,10.31,1.29,4.37-1.21,6,.5,9.23,4.61,8.85,30.73,12,39.75,3.55,5.07-4.72,2-10.52,7.2-13s12.68,1.13,20,4.53c13.74,6.43,14,10.77,22,12.66,12.63,3,28-3.94,27.87-8.36-.22-5.48-24.43-7-24.32-11.6.08-3.46,13.93-4,25.81-6.74,4.62.81,7.9,1.26,11.84,3.93,3.48,2.35,3.53,3.77,7,7.55,7.08,7.63,20,16,25.82,13.41,5.06-2.23.94-10.9,7.81-14.73a13.09,13.09,0,0,1,11.3-.37c3.75,1.77,6.11,5.63,5.29,8.68-.62,2.26-2.55,2.47-2.91,4-1.43,6,25.9,17.43,29.44,13.72,1.73-1.8-3.31-6-1.16-8.39s9.68-1.16,15,.81c8.74,3.27,9.37,7.81,17.26,11.75,7.62,3.8,15.44,3.74,18.17,3.72,17.75-.12,23.38-11.77,35.06-9.35,3.48.72,2.25,1.61,15.91,10.28,14.79,9.39,17.41,9.11,18.66,8.68,3.88-1.34,3.85-7.21,4.58-17.65.36-5.11.69-9.69,1.05-13.75a10,10,0,0,1,5.73-8.21l.06,0c7.28-3.4,14.84-6.94,20-4.53s2.13,8.23,7.19,13c9,8.4,35.14,5.3,39.76-3.55,1.7-3.26-.79-4.86.49-9.23,1.2-4.07,4.74-7.35,10.37-10.31A4.13,4.13,0,0,0,914,87.68c-.12,5.71,17.67,13.52,32.08,10.26,11.3-2.56,11.31-11.56,20.54-12.68C977,84,980.64,94.48,998.11,100.8c2.43.88,26,9.13,40.33.68a17.66,17.66,0,0,0,3.71-2.88h0a67.12,67.12,0,0,0,11.44,5c18.81,6.15,44.78,4.3,51-5.62,2.27-3.58.09-5.29,2.32-9.6,2.37-4.6,7.85-8.5,14.45-11h0a35.31,35.31,0,0,0,1.68,4.81c6.9,15.78,29,30.9,52.69,30.89,23.29,0,34-14.64,74.58-23.61,8-1.76,15.13-2.87,22.16-.19,11.07,4.23,11.12,13.82,21.89,16.07a26,26,0,0,0,18.24-3.38c5.72-3.73,5.72-8.35,11.08-10.92,2.22-1.07,7.7-2.9,19.71,1.27a63,63,0,0,1,23.57,14.6Z"/></g></g></svg>