<svg xmlns="http://www.w3.org/2000/svg" viewBox="0 0 1367 139.31"><defs><style>.cls-1{fill:#fff;}</style></defs><g id="Layer_2" data-name="Layer 2"><g id="Layer_1-2" data-name="Layer 1"><path class="cls-1" d="M1367,32.43A63,63,0,0,1,1343.43,47c-12,4.17-17.49,2.34-19.71,1.27-5.36-2.57-5.36-7.19-11.08-10.91A26,26,0,0,0,1294.4,34c-10.77,2.25-10.82,11.84-21.89,16.07-7,2.68-14.2,1.57-22.16-.19-40.62-9-51.29-23.61-74.58-23.61-23.66,0-45.79,15.11-52.69,30.89A35.31,35.31,0,0,0,1121.4,62h0c-6.6-2.53-12.08-6.43-14.45-11-2.23-4.31,0-6-2.32-9.6-6.26-9.92-32.23-11.77-51-5.62a67.12,67.12,0,0,0-11.44,5h0a17.66,17.66,0,0,0-3.71-2.88c-14.33-8.45-37.9-.2-40.33.68-17.47,6.32-21.1,16.82-31.54,15.54-9.23-1.12-9.24-10.12-20.54-12.68-14.41-3.26-32.2,4.55-32.08,10.26a4.13,4.13,0,0,0,1.56,2.84c-5.63-3-9.17-6.24-10.37-10.31-1.28-4.37,1.21-6-.49-9.23C900,26.08,873.92,23,864.89,31.38c-5.06,4.72-2,10.52-7.19,13s-12.68-1.13-20-4.53l-.06,0A10,10,0,0,1,832,31.56c-.36-4.06-.69-8.64-1.05-13.75-.73-10.44-.7-16.31-4.58-17.65-1.25-.43-3.87-.71-18.66,8.68C794,17.51,795.23,18.4,791.75,19.12c-11.68,2.42-17.31-9.23-35.06-9.35-2.73,0-10.55-.08-18.17,3.72C730.63,17.43,730,22,721.26,25.24c-5.27,2-12.81,3.21-15,.81s2.89-6.59,1.16-8.39C703.92,14,676.59,25.34,678,31.38c.36,1.52,2.29,1.73,2.91,4,.82,3.05-1.54,6.91-5.29,8.68a13.05,13.05,0,0,1-11.3-.37c-6.87-3.83-2.75-12.5-7.81-14.73-5.84-2.57-18.74,5.78-25.82,13.41-3.51,3.78-3.56,5.2-7,7.55-3.94,2.67-7.22,3.12-11.84,3.93C600,51.07,586.1,50.56,586,47.1c-.11-4.58,24.1-6.12,24.32-11.6.18-4.42-15.24-11.33-27.87-8.36-8.05,1.89-8.29,6.23-22,12.66-7.27,3.4-14.84,6.94-20,4.53s-2.13-8.23-7.2-12.95c-9-8.4-35.14-5.3-39.75,3.55-1.71,3.26.79,4.86-.5,9.23-1.19,4.07-4.73,7.35-10.36,10.31a4.15,4.15,0,0,0,1.55-2.84c.13-5.71-17.67-13.52-32.08-10.26-11.3,2.56-11.31,11.56-20.54,12.68-10.44,1.28-14.06-9.22-31.53-15.54-2.43-.88-26-9.13-40.33-.68A17.16,17.16,0,0,0,356,40.71h0a67.23,67.23,0,0,0-11.45-5c-18.81-6.15-44.78-4.3-51,5.62-2.26,3.59-.09,5.29-2.32,9.6-2.37,4.6-7.85,8.5-14.44,11a35.32,35.32,0,0,0-1.69-4.81c-6.89-15.78-29-30.9-52.69-30.89-23.28,0-33.95,14.64-74.58,23.61-8,1.76-15.13,2.87-22.15.19C114.6,45.84,114.56,36.25,103.79,34a26,26,0,0,0-18.24,3.39c-5.73,3.72-5.73,8.34-11.08,10.91-2.23,1.07-7.71,2.9-19.72-1.27C26.53,37.21,22.36,15.14,9.23,15.65a15.5,15.5,0,0,0-9.23,4V85a67.91,67.91,0,0,0,12.6,4C22.08,91.3,26.4,90.25,32.4,94c3.59,2.23,3.71,3.64,7.4,7.3,7.45,7.38,20.74,15.28,26.45,12.51,4.94-2.4.41-10.92,7.09-15a13,13,0,0,1,11.27-.75c3.83,1.63,6.38,5.42,5.7,8.49-.5,2.28-2.42,2.55-2.7,4.08-1.14,6.09,26.71,16.53,30.08,12.7,1.63-1.85-3.61-5.84-1.57-8.33s9.62-1.5,15,.29c8.89,3,9.74,7.49,17.82,11.15,7.8,3.53,15.61,3.21,18.34,3.1C185,128.82,190.05,117,201.83,119c3.51.6,2.33,1.52,16.4,9.72,15.23,8.88,17.83,8.51,19.06,8,3.81-1.46,3.5-7.33,3.73-17.78v0a7.35,7.35,0,0,1,2.56-5.43c4.39-3.78,6-8.61,12.54-9.65,10.37-1.67,14.55,8.68,32.34,14.33,2.48.79,26.47,8.13,40.33-.86a17.59,17.59,0,0,0,2.76-2.18h0a65.88,65.88,0,0,0,8,3.62c18.46,6.85,44.5,6,51.29-3.68,2.45-3.5.37-5.28,2.83-9.51,3.42-5.88,12.09-10.39,21.48-12.15a10.2,10.2,0,0,1,10.72,4.66,7.24,7.24,0,0,1,1,4.47c-.88,9.72-18.84,11.31-20.32,21.92-.9,6.45,4.62,13.86,10.54,14.75,5.65.84,8.22-4.77,21.37-14.25a124.5,124.5,0,0,1,13.16-8h0c2.45,6,5.11,11.15,10.79,12.18,9,1.63,23.07-7.29,29.05-19.64,10.42,2.36,14.79,7.27,29.45,6.14,16.91-1.3,18.23-7.75,43.87-13a108.69,108.69,0,0,1,15-2.16h0c4.33,15,14.23,28.5,24.46,28.55,13.14.06,16.24-22.13,44-32.9,11.8-4.59,17.36-2.94,19.64-1.95,5.47,2.38,5.7,7,11.6,10.53a26.15,26.15,0,0,0,18.38,2.76c10.66-2.62,10.24-12.2,21.1-16.81,6.89-2.92,14.11-2,22.14-.57,41,7.58,52.4,21.84,75.67,21a61.1,61.1,0,0,0,25-6.49c17.74,4.8,20.59,9.9,35.42,11,14.66,1.13,19-3.78,29.44-6.14h0c6,12.35,20.09,21.27,29.05,19.64,5.69-1,8.34-6.13,10.79-12.18h0a123.23,123.23,0,0,1,13.16,8c13.15,9.48,15.72,15.09,21.37,14.25,5.93-.89,11.45-8.3,10.55-14.75-1.48-10.61-19.45-12.2-20.33-21.92a7.38,7.38,0,0,1,1-4.47A10.21,10.21,0,0,1,983,93.43c9.4,1.76,18.06,6.27,21.48,12.15,2.46,4.23.38,6,2.84,9.51,6.78,9.67,32.83,10.53,51.29,3.68a66.44,66.44,0,0,0,8-3.62h0a17.69,17.69,0,0,0,2.77,2.18c13.86,9,37.85,1.65,40.32.86,17.79-5.65,22-16,32.34-14.33,7.59,1.22,8.57,7.59,15,11.45h0c0,1.19.05,2.41.08,3.67.23,10.45-.09,16.32,3.72,17.78,1.23.48,3.84.85,19.07-8,14.06-8.2,12.88-9.12,16.39-9.72,11.79-2,16.85,9.81,34.58,10.54,2.72.11,10.53.43,18.34-3.1,8.07-3.66,8.92-8.19,17.81-11.15,5.37-1.79,13-2.77,15-.29s-3.2,6.48-1.56,8.33c3.36,3.83,31.21-6.61,30.08-12.7-.29-1.53-2.21-1.8-2.71-4.08-.68-3.07,1.87-6.86,5.71-8.49a13,13,0,0,1,11.27.75c6.68,4.06,2.14,12.58,7.08,15,5.72,2.77,19-5.13,26.46-12.51,3.68-3.66,3.8-5.07,7.39-7.3.42-.26.82-.49,1.22-.71Z"/></g></g></svg>