<svg xmlns="http://www.w3.org/2000/svg" viewBox="0 0 1429.04 139.31"><defs><style>.cls-1{fill:#fff;}</style></defs><g id="Layer_2" data-name="Layer 2"><g id="Layer_1-2" data-name="Layer 1"><path class="cls-1" d="M1428.73,76.13c-.54-4.5-1.52-11.62-7.82-17.23-6-5.29-14.48-7.33-19.9-8.63-9.48-2.26-13.8-1.21-19.8-5-3.59-2.23-3.71-3.64-7.4-7.3-7.45-7.38-20.74-15.28-26.45-12.51-4.94,2.4-.41,10.92-7.09,15a13,13,0,0,1-11.27.75c-3.83-1.63-6.38-5.42-5.7-8.49.5-2.28,2.42-2.55,2.7-4.08,1.14-6.09-26.71-16.53-30.08-12.7-1.63,1.85,3.61,5.84,1.57,8.33s-9.62,1.5-15-.29c-8.9-3-9.74-7.49-17.82-11.15-7.8-3.53-15.61-3.21-18.34-3.1-17.73.73-22.79,12.57-34.57,10.55-3.52-.61-2.33-1.53-16.4-9.73-15.23-8.88-17.83-8.51-19.06-8-3.82,1.46-3.5,7.33-3.73,17.78v0A7.35,7.35,0,0,1,1170,25.8c-4.39,3.78-6,8.61-12.54,9.65-10.37,1.67-14.55-8.68-32.34-14.33-2.48-.79-26.47-8.13-40.33.86a17.59,17.59,0,0,0-2.76,2.18h0a65.88,65.88,0,0,0-8-3.62c-18.46-6.85-44.5-6-51.29,3.68-2.45,3.5-.37,5.28-2.83,9.51-3.42,5.88-12.09,10.39-21.48,12.15a10.2,10.2,0,0,1-10.72-4.66,7.24,7.24,0,0,1-1-4.47c.88-9.72,18.84-11.31,20.32-21.92.9-6.45-4.62-13.86-10.54-14.75-5.65-.84-8.22,4.77-21.37,14.25a124.5,124.5,0,0,1-13.16,8h0c-2.45-6.05-5.11-11.15-10.79-12.18-9-1.63-23.07,7.29-29,19.64h0c-10.42-2.36-14.79-7.27-29.45-6.14-16.91,1.3-18.23,7.75-43.87,13a108.69,108.69,0,0,1-15,2.16h0c-4.33-15-14.23-28.5-24.46-28.55-13.14-.06-16.24,22.13-44,32.9-11.8,4.59-17.36,2.94-19.64,1.95-5.47-2.38-5.7-7-11.6-10.53a26.15,26.15,0,0,0-18.38-2.76c-10.66,2.62-10.24,12.2-21.1,16.81-6.89,2.92-14.11,2-22.14.57-41-7.58-52.4-21.84-75.67-21a61.1,61.1,0,0,0-25,6.49h0c-17.74-4.8-20.59-9.9-35.42-11-14.66-1.13-19,3.78-29.45,6.14h0c-6-12.35-20.08-21.27-29-19.64-5.69,1-8.34,6.13-10.79,12.18h0a123.23,123.23,0,0,1-13.16-8C440.79,4.85,438.22-.76,432.57.08,426.64,1,421.12,8.38,422,14.83c1.48,10.61,19.45,12.2,20.33,21.92a7.38,7.38,0,0,1-1,4.47,10.21,10.21,0,0,1-10.72,4.66c-9.4-1.76-18.06-6.27-21.48-12.15-2.46-4.23-.38-6-2.84-9.51-6.78-9.67-32.83-10.53-51.29-3.68a66.44,66.44,0,0,0-8,3.62h0A18.17,18.17,0,0,0,344.21,22c-13.86-9-37.85-1.65-40.32-.86-17.79,5.65-22,16-32.34,14.33C264,34.23,263,27.86,256.52,24h0c0-1.19,0-2.41-.08-3.67-.23-10.45.09-16.32-3.72-17.78-1.23-.48-3.84-.85-19.07,8-14.06,8.2-12.88,9.12-16.39,9.73-11.79,2-16.85-9.82-34.58-10.55-2.73-.11-10.53-.43-18.34,3.1-8.07,3.66-8.92,8.19-17.81,11.15-5.37,1.79-13,2.77-15,.29s3.2-6.48,1.56-8.33c-3.36-3.83-31.22,6.61-30.08,12.7.29,1.53,2.21,1.8,2.71,4.08.68,3.07-1.87,6.86-5.71,8.49a13,13,0,0,1-11.27-.75c-6.68-4.06-2.14-12.58-7.08-15C76,22.74,62.67,30.64,55.22,38c-3.68,3.66-3.81,5.07-7.39,7.3-6,3.74-10.33,2.69-19.81,5-5.41,1.3-13.95,3.34-19.89,8.63C1.83,64.51.85,71.63.3,76.13c-2.41,19.93,10,47,24.36,47.53,13.13.51,17.3-21.56,45.52-31.38,12-4.17,17.48-2.34,19.71-1.27,5.36,2.57,5.36,7.19,11.08,10.91a26,26,0,0,0,18.24,3.39C130,103.06,130,93.47,141.1,89.24c7-2.68,14.2-1.57,22.16.19,40.62,9,51.29,23.61,74.58,23.61,23.66,0,45.79-15.11,52.69-30.89a35.31,35.31,0,0,0,1.68-4.81h0c6.6,2.53,12.08,6.43,14.45,11,2.23,4.31,0,6,2.32,9.6,6.26,9.92,32.23,11.77,51,5.62a67.12,67.12,0,0,0,11.44-5h0a17.66,17.66,0,0,0,3.71,2.88c14.33,8.45,37.9.2,40.33-.68C433,94.48,436.6,84,447,85.26c9.23,1.12,9.24,10.12,20.54,12.68,14.41,3.26,32.2-4.55,32.08-10.26a4.13,4.13,0,0,0-1.56-2.84c5.63,3,9.17,6.24,10.37,10.31,1.28,4.37-1.21,6,.49,9.23,4.62,8.85,30.73,12,39.76,3.55,5.06-4.72,2-10.52,7.19-13s12.68,1.13,20,4.53l.06,0a10,10,0,0,1,5.73,8.21c.36,4.06.69,8.64,1.05,13.75.73,10.44.7,16.31,4.58,17.65,1.25.43,3.87.71,18.66-8.68,13.66-8.67,12.43-9.56,15.91-10.28,11.68-2.42,17.31,9.23,35.06,9.35,2.73,0,10.55.08,18.17-3.72,7.89-3.94,8.52-8.48,17.26-11.75,5.27-2,12.81-3.21,15-.81s-2.89,6.59-1.16,8.39c3.54,3.71,30.87-7.68,29.44-13.72-.36-1.52-2.29-1.73-2.91-4-.82-3,1.54-6.91,5.29-8.68a13.05,13.05,0,0,1,11.3.37c6.87,3.83,2.75,12.5,7.81,14.73,5.84,2.57,18.73-5.78,25.82-13.41,3.5-3.78,3.56-5.2,7-7.55,3.94-2.67,7.22-3.12,11.84-3.93h0c11.88,2.77,25.73,3.28,25.81,6.74.11,4.58-24.1,6.12-24.32,11.6-.18,4.42,15.24,11.33,27.87,8.36,8.05-1.89,8.29-6.23,22-12.66,7.27-3.4,14.84-6.94,20-4.53s2.13,8.23,7.2,13c9,8.4,35.14,5.3,39.75-3.55,1.71-3.26-.79-4.86.5-9.23,1.19-4.07,4.73-7.35,10.36-10.31a4.15,4.15,0,0,0-1.55,2.84c-.13,5.71,17.67,13.52,32.08,10.26,11.3-2.56,11.31-11.56,20.54-12.68,10.44-1.28,14.06,9.22,31.53,15.54,2.43.88,26,9.13,40.33.68a17.4,17.4,0,0,0,3.71-2.88h0a67.23,67.23,0,0,0,11.45,5c18.81,6.15,44.78,4.3,51-5.62,2.26-3.59.09-5.29,2.32-9.6,2.37-4.6,7.84-8.5,14.44-11h0a35.32,35.32,0,0,0,1.69,4.81c6.89,15.78,29,30.9,52.69,30.89,23.28,0,34-14.64,74.58-23.61,8-1.76,15.13-2.87,22.15-.19,11.08,4.23,11.12,13.82,21.89,16.07a26,26,0,0,0,18.24-3.39c5.73-3.72,5.73-8.34,11.08-10.91,2.23-1.07,7.71-2.9,19.72,1.27,28.22,9.82,32.39,31.89,45.52,31.38C1418.72,123.1,1431.15,96.06,1428.73,76.13Z"/></g></g></svg>