<svg xmlns="http://www.w3.org/2000/svg" viewBox="0 0 40 40"><defs><style>.cls-1{fill:#470137;}.cls-2{fill:#ff61f6;}</style></defs><g id="Layer_2" data-name="Layer 2"><g id="Layer_1-2" data-name="Layer 1"><rect class="cls-1" width="40" height="40" rx="5.86"/><path class="cls-2" d="M21.21,11.87l-4.92,7.91,5.26,8.57a.34.34,0,0,1,0,.2c0,.06-.08.1-.19.11H17.64a.51.51,0,0,1-.32-.05.69.69,0,0,1-.24-.21c-.35-.69-.7-1.32-1-2S15.3,25,14.9,24.33s-.79-1.42-1.17-2.14h0c-.35.7-.72,1.41-1.1,2.11l-1.12,2.1c-.37.7-.75,1.34-1.14,2a.4.4,0,0,1-.14.18.37.37,0,0,1-.23.05H6.35s0,0,0,0l0,0,0,0s0,0,0,0a.31.31,0,0,1,0-.19l5.1-8.32-5-8.21c-.06-.07-.07-.12,0-.17a.18.18,0,0,1,.07-.05.14.14,0,0,1,.09,0h3.72a.38.38,0,0,1,.24,0,.36.36,0,0,1,.16.14c.32.71.67,1.21,1.06,1.91s.78,1.4,1.17,2.09.77,1.38,1.1,2.09h0c.35-.72.71-1.43,1.07-2.12l1.11-2.07c.38-.7.74-1.19,1.09-1.87a.34.34,0,0,1,.11-.17.32.32,0,0,1,.21,0h3.46a.11.11,0,0,1,.1,0,.16.16,0,0,1,.08.06.18.18,0,0,1,0,.1A.19.19,0,0,1,21.21,11.87Z"/><path class="cls-2" d="M28.52,29.22A8.14,8.14,0,0,1,25,28.48a5.56,5.56,0,0,1-2.47-2.23,7.27,7.27,0,0,1-.9-3.74,7,7,0,0,1,.9-3.46,6.66,6.66,0,0,1,2.62-2.54,8.55,8.55,0,0,1,4.15-1h.34l.64,0V10.94a.41.41,0,0,1,.08-.32.45.45,0,0,1,.28-.16h2.55a.48.48,0,0,1,.48.48V26c0,.3,0,.63,0,1s0,.67.07.95a.32.32,0,0,1,0,.16.29.29,0,0,1-.12.1,12,12,0,0,1-2.55.8A14.45,14.45,0,0,1,28.52,29.22ZM30.21,26V18.73a4.5,4.5,0,0,0-.51-.08,4.87,4.87,0,0,0-.54,0,4,4,0,0,0-1.85.42,3.36,3.36,0,0,0-1.93,3.3A4.62,4.62,0,0,0,25.66,24a3.19,3.19,0,0,0,.74,1.17,2.79,2.79,0,0,0,1.11.66,4.4,4.4,0,0,0,1.36.21c.24,0,.47,0,.68,0A3.76,3.76,0,0,0,30.21,26Z"/></g></g></svg>