<svg xmlns="http://www.w3.org/2000/svg" viewBox="0 0 28.27 28.27"><defs><style>.cls-1{fill:red;}.cls-2{fill:#fff;}</style></defs><g id="Layer_2" data-name="Layer 2"><g id="Layer_1-2" data-name="Layer 1"><circle class="cls-1" cx="14.14" cy="14.14" r="13.64"/><path class="cls-2" d="M14.14,1A13.14,13.14,0,1,1,1,14.14,13.13,13.13,0,0,1,14.14,1m0-1A14.14,14.14,0,1,0,28.27,14.14,14.15,14.15,0,0,0,14.14,0Z"/><path class="cls-2" d="M22.37,10a2.16,2.16,0,0,0-1.52-1.52,51.17,51.17,0,0,0-6.71-.36,52.76,52.76,0,0,0-6.72.35A2.18,2.18,0,0,0,5.91,10a22.25,22.25,0,0,0-.36,4.13,22.19,22.19,0,0,0,.36,4.13,2.13,2.13,0,0,0,1.51,1.51,50.09,50.09,0,0,0,6.72.37,51.17,51.17,0,0,0,6.71-.36,2.16,2.16,0,0,0,1.52-1.51,22.87,22.87,0,0,0,.35-4.13A22,22,0,0,0,22.37,10Zm-10,6.7V11.56l4.47,2.58Z"/></g></g></svg>